<?xml version="1.0" encoding="UTF-8"?>
<svg version="1.1" xmlns="http://www.w3.org/2000/svg" width="606" height="600">
<path d="M0 0 C199.98 0 399.96 0 606 0 C606 198 606 396 606 600 C406.02 600 206.04 600 0 600 C0 402 0 204 0 0 Z " fill="#FEFEFE" transform="translate(0,0)"/>
<path d="M0 0 C17.49 0 34.98 0 53 0 C52.25386143 3.73069283 51.46826597 6.57404607 50 10 C49.34 10 48.68 10 48 10 C48 10.99 48 11.98 48 13 C47.34 13 46.68 13 46 13 C45.5359375 14.175625 45.5359375 14.175625 45.0625 15.375 C44 18 44 18 43 20 C42.34 20 41.68 20 41 20 C40.67 20.99 40.34 21.98 40 23 C39.43539063 23.56203125 38.87078125 24.1240625 38.2890625 24.703125 C34.64410906 28.36051856 31.85252684 32.64646836 28.890625 36.86328125 C27.63989809 38.60951472 26.32481397 40.30928503 25 42 C24.34 42 23.68 42 23 42 C22.6596875 42.804375 22.6596875 42.804375 22.3125 43.625 C20.3054879 47.25673618 17.77164705 51.11417648 14 53 C13.67 53.99 13.34 54.98 13 56 C10.9375 56.6875 10.9375 56.6875 9 57 C8.938125 57.598125 8.87625 58.19625 8.8125 58.8125 C7.65908045 61.91786033 5.89437389 62.51915754 3 64 C1.8553125 64.5878125 1.8553125 64.5878125 0.6875 65.1875 C0.130625 65.455625 -0.42625 65.72375 -1 66 C-1 66.66 -1 67.32 -1 68 C-2.93359375 69.65625 -2.93359375 69.65625 -5.4375 71.5 C-8.74856792 73.79910263 -8.74856792 73.79910263 -11 77 C-13 78 -15 79 -17 80 C-17.33 80.66 -17.66 81.32 -18 82 C-19.88285752 82.94142876 -21.76830831 83.87811117 -23.66796875 84.78515625 C-26.97039428 86.50551528 -29.97117219 88.59931507 -33.01953125 90.73046875 C-35 92 -35 92 -38 93 C-38.66 93.99 -39.32 94.98 -40 96 C-42.33855635 97.12430594 -44.57972289 98.10002301 -47 99 C-48.485 99.556875 -48.485 99.556875 -50 100.125 C-53.3198627 101.09329329 -56.57008315 101.58840998 -60 102 C-60 102.66 -60 103.32 -60 104 C-63.2881735 105.13538643 -66.58110901 106.25632004 -69.875 107.375 C-70.7928125 107.69210937 -71.710625 108.00921875 -72.65625 108.3359375 C-78.04234431 110.1565891 -83.29619759 111.57619164 -88.91064453 112.49462891 C-91.28598535 112.94254601 -91.28598535 112.94254601 -94 115 C-96.06913757 115.24050903 -96.06913757 115.24050903 -98.47143555 115.22705078 C-99.37214279 115.22689972 -100.27285004 115.22674866 -101.20085144 115.22659302 C-102.16968765 115.21627045 -103.13852386 115.20594788 -104.13671875 115.1953125 C-105.62858452 115.19106766 -105.62858452 115.19106766 -107.15058899 115.18673706 C-110.3296813 115.17553489 -113.50849272 115.15043014 -116.6875 115.125 C-118.84179281 115.11497025 -120.99609003 115.10584439 -123.15039062 115.09765625 C-128.43368972 115.07559546 -133.71682479 115.04211756 -139 115 C-139 114.34 -139 113.68 -139 113 C-139.7734375 112.89042969 -140.546875 112.78085937 -141.34375 112.66796875 C-146.78308077 111.83995181 -151.76272839 110.90679075 -156.84375 108.796875 C-161.42782936 107.10275871 -166.24837087 106.11663285 -171 105 C-171 104.34 -171 103.68 -171 103 C-172.423125 102.5978125 -172.423125 102.5978125 -173.875 102.1875 C-177 101 -177 101 -179 98 C-181.03973253 96.63009119 -181.03973253 96.63009119 -183.375 95.4375 C-184.53128906 94.81681641 -184.53128906 94.81681641 -185.7109375 94.18359375 C-187.18566008 93.42106655 -188.67483175 92.68556227 -190.1796875 91.984375 C-192.81451146 90.55953457 -194.12966545 88.33791818 -196 86 C-197.13433624 85.04862122 -198.28190713 84.11294335 -199.4375 83.1875 C-203.82523378 79.45750999 -207.37575693 75.13814338 -211 70.6875 C-211.58837646 69.96908936 -212.17675293 69.25067871 -212.78295898 68.51049805 C-217 63.25677556 -217 63.25677556 -217 61 C-213.88944448 62.39319782 -211.67359496 64.05599492 -209.1875 66.375 C-205.63338066 69.560544 -202.18059059 71.71967786 -198 74 C-196.80254553 74.8613269 -195.61505867 75.73666627 -194.4375 76.625 C-191.41094586 78.83774736 -188.60176751 79.89741811 -185 81 C-183.3603125 81.9590625 -183.3603125 81.9590625 -181.6875 82.9375 C-157.90510595 94.71838908 -124.33470136 88.79950838 -99.9375 81.625 C-98.98496338 81.34519287 -98.03242676 81.06538574 -97.05102539 80.77709961 C-91.56503574 79.07012193 -86.77687581 76.97777443 -81.87719727 73.96630859 C-80 73 -80 73 -77 73 C-77 72.34 -77 71.68 -77 71 C-76.01 71 -75.02 71 -74 71 C-74 70.34 -74 69.68 -74 69 C-73.43410156 68.80664062 -72.86820313 68.61328125 -72.28515625 68.4140625 C-71.55167969 68.15367187 -70.81820312 67.89328125 -70.0625 67.625 C-69.33160156 67.36976563 -68.60070312 67.11453125 -67.84765625 66.8515625 C-65.81317884 66.14728587 -65.81317884 66.14728587 -65 64 C-64.01 64 -63.02 64 -62 64 C-62 63.34 -62 62.68 -62 62 C-60.3125 60.66796875 -60.3125 60.66796875 -58 59.1875 C-56.77603516 58.40052734 -56.77603516 58.40052734 -55.52734375 57.59765625 C-54.69332031 57.07042969 -53.85929688 56.54320312 -53 56 C-51.85724609 55.25556641 -51.85724609 55.25556641 -50.69140625 54.49609375 C-45.26299858 51 -45.26299858 51 -43 51 C-43 50.01 -43 49.02 -43 48 C-41.68 47.67 -40.36 47.34 -39 47 C-39 46.34 -39 45.68 -39 45 C-37.42578125 43.4140625 -37.42578125 43.4140625 -35.3125 41.625 C-34.58160156 40.99980469 -33.85070312 40.37460937 -33.09765625 39.73046875 C-31.51496998 38.42482626 -29.89138441 37.16853831 -28.25 35.9375 C-25.5475373 33.61037934 -23.95683379 30.96681252 -22 28 C-18.6 25 -18.6 25 -16 25 C-15.75894531 24.09765625 -15.51789063 23.1953125 -15.26953125 22.265625 C-13.56173192 17.87263964 -10.87115677 15.78695568 -7.38671875 12.734375 C-4.04518036 9.13721952 -4.04518036 9.13721952 0 0 Z " fill="#2C4B87" transform="translate(382,370)"/>
<path d="M0 0 C0.80034164 -0.00428513 1.60068329 -0.00857025 2.42527771 -0.01298523 C4.11366842 -0.0187017 5.80208375 -0.01924869 7.49047852 -0.01489258 C10.02730306 -0.01175742 12.56293069 -0.03513815 15.09960938 -0.06054688 C25.01648797 -0.09847678 33.86420772 0.7760044 43.49609375 3.30078125 C45.28616538 3.70376638 47.07766627 4.1005038 48.87109375 4.48828125 C50.06734375 4.75640625 51.26359375 5.02453125 52.49609375 5.30078125 C52.49609375 5.96078125 52.49609375 6.62078125 52.49609375 7.30078125 C53.5634375 7.46900391 53.5634375 7.46900391 54.65234375 7.640625 C75.13723297 12.39604571 94.64561703 30.41248077 107.49609375 46.30078125 C109.00787621 48.91282946 110.22316149 51.559081 111.49609375 54.30078125 C112.48609375 54.96078125 113.47609375 55.62078125 114.49609375 56.30078125 C119.35566121 63.36924301 123.00001444 71.86289396 124.49609375 80.30078125 C125.15609375 80.30078125 125.81609375 80.30078125 126.49609375 80.30078125 C128.38962361 83.54683243 129.14447233 86.80016069 129.9921875 90.41796875 C130.45319055 92.39273793 130.45319055 92.39273793 131.55859375 94.42578125 C134.45949091 100.22757557 133.49609375 107.04342348 133.49609375 113.30078125 C117.98609375 113.30078125 102.47609375 113.30078125 86.49609375 113.30078125 C86.49609375 111.65078125 86.49609375 110.00078125 86.49609375 108.30078125 C85.83609375 108.30078125 85.17609375 108.30078125 84.49609375 108.30078125 C84.36332031 107.264375 84.23054687 106.22796875 84.09375 105.16015625 C83.91548736 103.7903486 83.73709513 102.42055781 83.55859375 101.05078125 C83.47158203 100.36886719 83.38457031 99.68695313 83.29492188 98.984375 C82.86449995 95.70041514 82.40815244 92.48887831 81.49609375 89.30078125 C80.83609375 89.30078125 80.17609375 89.30078125 79.49609375 89.30078125 C79.42132813 88.70652344 79.3465625 88.11226563 79.26953125 87.5 C78.26522766 81.16894893 76.18800127 76.35183474 72.93359375 70.84375 C71.54290755 68.38359588 70.48349611 65.94493085 69.49609375 63.30078125 C68.83609375 63.30078125 68.17609375 63.30078125 67.49609375 63.30078125 C66.95082031 62.28757813 66.40554688 61.274375 65.84375 60.23046875 C63.58221083 56.2770075 60.89225472 52.87555599 57.93359375 49.42578125 C57.45212891 48.84570312 56.97066406 48.265625 56.47460938 47.66796875 C53.54361223 44.21266751 53.54361223 44.21266751 49.49609375 42.30078125 C48.23533129 40.81372809 46.97757528 39.32315785 45.76953125 37.79296875 C44.22172622 35.9792831 42.40459757 34.71448779 40.49609375 33.30078125 C40.49609375 32.64078125 40.49609375 31.98078125 40.49609375 31.30078125 C39.73296875 31.19765625 38.96984375 31.09453125 38.18359375 30.98828125 C35.2303086 30.2327897 34.53741541 29.43085602 32.49609375 27.30078125 C30.39276484 26.58630482 30.39276484 26.58630482 28.49609375 26.30078125 C28.49609375 25.64078125 28.49609375 24.98078125 28.49609375 24.30078125 C26.88541016 23.91986328 26.88541016 23.91986328 25.2421875 23.53125 C23.80591177 23.18391535 22.36971819 22.83624092 20.93359375 22.48828125 C20.22912109 22.32263672 19.52464844 22.15699219 18.79882812 21.98632812 C15.32987371 21.13907198 12.23428612 20.18812638 8.9375 18.76953125 C-9.63106308 10.84469616 -34.05781195 13.20708443 -53.50390625 16.30078125 C-50.83693617 12.96464413 -47.66432269 12.12085572 -43.69140625 10.80078125 C-40.1497496 9.61643305 -36.83180417 8.47202637 -33.51953125 6.7421875 C-30.04315149 5.08055002 -26.85456128 4.41681465 -23.06640625 3.73828125 C-19.38807364 3.07052241 -15.86215313 2.41573699 -12.30078125 1.27294922 C-8.07161454 0.19009545 -4.33799096 -0.00526346 0 0 Z " fill="#315997" transform="translate(330.50390625,110.69921875)"/>
<path d="M0 0 C3.99424804 0.30235344 7.93790748 0.29168209 11.94140625 0.22265625 C10.35177966 4.25786222 8.65908307 8.24076907 6.94140625 12.22265625 C6.28140625 12.22265625 5.62140625 12.22265625 4.94140625 12.22265625 C4.61140625 13.87265625 4.28140625 15.52265625 3.94140625 17.22265625 C2.45640625 17.71765625 2.45640625 17.71765625 0.94140625 18.22265625 C-0.92212221 20.16887316 -0.92212221 20.16887316 -2.68359375 22.53515625 C-3.29460937 23.31503906 -3.905625 24.09492188 -4.53515625 24.8984375 C-6.32297077 27.34804476 -6.32297077 27.34804476 -7.05859375 31.22265625 C-22.23859375 31.22265625 -37.41859375 31.22265625 -53.05859375 31.22265625 C-53.05859375 61.25265625 -53.05859375 91.28265625 -53.05859375 122.22265625 C-65.59859375 122.22265625 -78.13859375 122.22265625 -91.05859375 122.22265625 C-91.05859375 88.56265625 -91.05859375 54.90265625 -91.05859375 20.22265625 C-90.06859375 19.89265625 -89.07859375 19.56265625 -88.05859375 19.22265625 C-88.05859375 17.90265625 -88.05859375 16.58265625 -88.05859375 15.22265625 C-87.39859375 15.22265625 -86.73859375 15.22265625 -86.05859375 15.22265625 C-85.99671875 14.66578125 -85.93484375 14.10890625 -85.87109375 13.53515625 C-83.98200445 8.15851748 -77.88681592 3.64106651 -72.89038086 1.13525391 C-69.33207975 -0.01147681 -65.95177158 -0.13144415 -62.25 -0.19140625 C-61.11739746 -0.22059143 -61.11739746 -0.22059143 -59.96191406 -0.25036621 C-57.51508709 -0.31064091 -55.06824019 -0.35704667 -52.62109375 -0.40234375 C-50.93545539 -0.43948573 -49.24982705 -0.47708518 -47.56420898 -0.51513672 C-14.42279723 -1.23227269 -14.42279723 -1.23227269 0 0 Z " fill="#4F4F4F" transform="translate(378.05859375,237.77734375)"/>
<path d="M0 0 C2.20063559 -0.0021892 4.40077079 -0.02041045 6.60131836 -0.03930664 C20.85760956 -0.0965483 32.55810653 3.14028805 45.77124023 8.18530273 C45.77124023 8.84530273 45.77124023 9.50530273 45.77124023 10.18530273 C48.74124023 11.17530273 51.71124023 12.16530273 54.77124023 13.18530273 C54.77124023 13.84530273 54.77124023 14.50530273 54.77124023 15.18530273 C55.49827148 15.44182617 56.22530273 15.69834961 56.97436523 15.96264648 C65.30333629 19.60366316 72.90704735 27.35790908 78.77124023 34.18530273 C78.77124023 34.84530273 78.77124023 35.50530273 78.77124023 36.18530273 C79.43124023 36.18530273 80.09124023 36.18530273 80.77124023 36.18530273 C83.06772673 38.74676844 83.77124023 39.66497846 83.77124023 43.18530273 C81.25227974 42.06576474 79.37389368 40.86548722 77.20874023 39.12280273 C74.85098004 37.02145925 74.85098004 37.02145925 71.77124023 36.18530273 C71.77124023 35.52530273 71.77124023 34.86530273 71.77124023 34.18530273 C68.47124023 33.19530273 65.17124023 32.20530273 61.77124023 31.18530273 C61.77124023 30.52530273 61.77124023 29.86530273 61.77124023 29.18530273 C40.26101073 21.21855106 19.06731787 19.94199645 -3.22875977 25.18530273 C-4.4134082 25.42506836 -5.59805664 25.66483398 -6.81860352 25.91186523 C-12.49239705 27.09471795 -17.50843992 28.46174299 -22.58813477 31.27905273 C-24.22875977 32.18530273 -24.22875977 32.18530273 -26.97875977 33.24780273 C-29.26983907 34.08957821 -29.26983907 34.08957821 -31.10375977 35.62280273 C-33.22875977 37.18530273 -33.22875977 37.18530273 -36.22875977 38.37280273 C-47.79333338 43.17087051 -58.8207915 52.55483557 -67.47875977 61.51342773 C-69.22875977 63.18530273 -69.22875977 63.18530273 -71.22875977 63.18530273 C-71.22875977 63.84530273 -71.22875977 64.50530273 -71.22875977 65.18530273 C-71.88875977 65.18530273 -72.54875977 65.18530273 -73.22875977 65.18530273 C-73.27000977 65.74217773 -73.31125977 66.29905273 -73.35375977 66.87280273 C-74.66618484 70.34135471 -77.39615647 71.88381256 -80.22875977 74.18530273 C-80.72375977 75.67030273 -80.72375977 75.67030273 -81.22875977 77.18530273 C-81.97125977 77.76280273 -82.71375977 78.34030273 -83.47875977 78.93530273 C-86.03354618 81.02558253 -86.75409329 82.04032364 -88.26855469 84.78320312 C-89.86462024 87.0524191 -90.68157467 88.02787049 -93.37295532 88.80221558 C-96.0548657 88.99581992 -98.65507209 88.9725409 -101.34204102 88.86889648 C-102.79636787 88.85403954 -102.79636787 88.85403954 -104.28007507 88.83888245 C-107.36869297 88.79977932 -110.45372133 88.71196571 -113.54125977 88.62280273 C-115.63821355 88.58768357 -117.73522319 88.55574563 -119.83227539 88.52709961 C-124.96581425 88.45003034 -130.09667908 88.32927565 -135.22875977 88.18530273 C-133.93749429 84.16679552 -132.6786763 80.65601782 -130.22875977 77.18530273 C-129.56875977 77.18530273 -128.90875977 77.18530273 -128.22875977 77.18530273 C-127.89875977 75.53530273 -127.56875977 73.88530273 -127.22875977 72.18530273 C-126.56875977 72.18530273 -125.90875977 72.18530273 -125.22875977 72.18530273 C-125.22875977 71.52530273 -125.22875977 70.86530273 -125.22875977 70.18530273 C-124.23875977 69.69030273 -124.23875977 69.69030273 -123.22875977 69.18530273 C-122.85750977 68.50467773 -122.48625977 67.82405273 -122.10375977 67.12280273 C-119.90142367 63.67247618 -117.27355712 61.14572493 -114.34985352 58.30249023 C-112.31422179 56.27060737 -110.4189489 54.17542908 -108.54125977 51.99780273 C-104.43299631 47.23743396 -100.13773014 43.11247903 -95.22875977 39.18530273 C-94.40375977 38.31905273 -93.57875977 37.45280273 -92.72875977 36.56030273 C-90.25522306 34.21044286 -88.44784145 33.19701412 -85.22875977 32.18530273 C-85.22875977 31.52530273 -85.22875977 30.86530273 -85.22875977 30.18530273 C-82.66729406 27.88881624 -81.74908404 27.18530273 -78.22875977 27.18530273 C-78.22875977 26.52530273 -78.22875977 25.86530273 -78.22875977 25.18530273 C-77.28000977 24.83467773 -76.33125977 24.48405273 -75.35375977 24.12280273 C-72.13940988 22.76165656 -69.57576972 21.03193037 -66.79125977 18.93530273 C-56.34628245 11.45657275 -44.14877375 7.58432903 -31.87329102 4.22827148 C-28.38135444 3.31947336 -28.38135444 3.31947336 -25.80297852 2.11108398 C-17.74720998 -0.78605887 -8.46674613 -0.00094148 0 0 Z " fill="#5A5A5A" transform="translate(307.228759765625,135.814697265625)"/>
<path d="M0 0 C0 40.92 0 81.84 0 124 C-12.54 124 -25.08 124 -38 124 C-38.06782427 110.05672033 -38.12284435 96.11355055 -38.15543652 82.17014313 C-38.17108049 75.69539756 -38.19229596 69.22077089 -38.22631836 62.74609375 C-38.2589565 56.49560886 -38.27686256 50.24523822 -38.28463173 43.99467468 C-38.29016719 41.61209821 -38.30097658 39.22952786 -38.31719017 36.84700012 C-38.33902316 33.50528538 -38.3419644 30.16404042 -38.34057617 26.82226562 C-38.351362 25.84114807 -38.36214783 24.86003052 -38.3732605 23.84918213 C-38.34099966 16.65442399 -37.37560851 10.96951064 -32.75 5.1875 C-22.36196688 -3.07570816 -14.39052464 0 0 0 Z " fill="#235198" transform="translate(254,236)"/>
<path d="M0 0 C12.54 0 25.08 0 38 0 C44 15 44 15 46 22 C46.66 22 47.32 22 48 22 C48.061875 22.556875 48.12375 23.11375 48.1875 23.6875 C49.33100544 26.94209239 51.55951994 28.58061919 54 31 C55.41464618 32.75584099 56.81034232 34.52710421 58.1875 36.3125 C64.66541966 44.29691261 71.76370216 49.63375011 81 54 C81.33 54.66 81.66 55.32 82 56 C90.08784389 61.84122058 99.40179679 62.25396796 109 63 C109 63.66 109 64.32 109 65 C122.2 64.67 135.4 64.34 149 64 C145.84695157 67.15304843 143.86505348 68.03610226 139.75 69.5625 C138.65171875 69.97628906 137.5534375 70.39007813 136.421875 70.81640625 C115.48003476 78.05998798 92.48330935 79.73348771 71 74 C70.31599121 73.82839355 69.63198242 73.65678711 68.92724609 73.47998047 C55.63048855 70.12506013 44.2714446 65.3782755 34 56 C33.01 55.67 32.02 55.34 31 55 C30.67 54.34 30.34 53.68 30 53 C28.515 52.505 28.515 52.505 27 52 C25.96514123 49.68191636 24.9644586 47.34824702 24 45 C23.34 44.67 22.68 44.34 22 44 C22 43.01 22 42.02 22 41 C21.071875 40.814375 21.071875 40.814375 20.125 40.625 C18 40 18 40 16 38 C16 36.68 16 35.36 16 34 C15.34 34 14.68 34 14 34 C11 29.61538462 11 29.61538462 11 27 C10.34 27 9.68 27 9 27 C5.09122834 22.31190938 3.69538145 18.02663926 3 12 C2.01268258 10.65724831 1.01405257 9.32267727 0 8 C-0.1875 5.4375 -0.1875 5.4375 0 3 C0 2.01 0 1.02 0 0 Z " fill="#5E5E5E" transform="translate(148,371)"/>
<path d="M0 0 C0.96768311 0.00193359 1.93536621 0.00386719 2.93237305 0.00585938 C9.46952986 0.04506598 15.91951628 0.34578599 22.43359375 0.90234375 C26.42784179 1.20469719 30.37150123 1.19402584 34.375 1.125 C32.78537341 5.16020597 31.09267682 9.14311282 29.375 13.125 C28.715 13.125 28.055 13.125 27.375 13.125 C27.045 14.775 26.715 16.425 26.375 18.125 C24.89 18.62 24.89 18.62 23.375 19.125 C21.51147154 21.07121691 21.51147154 21.07121691 19.75 23.4375 C19.13898438 24.21738281 18.52796875 24.99726563 17.8984375 25.80078125 C16.11062298 28.25038851 16.11062298 28.25038851 15.375 32.125 C0.195 32.125 -14.985 32.125 -30.625 32.125 C-30.625 62.155 -30.625 92.185 -30.625 123.125 C-43.165 123.125 -55.705 123.125 -68.625 123.125 C-68.625 89.465 -68.625 55.805 -68.625 21.125 C-68.295 21.125 -67.965 21.125 -67.625 21.125 C-67.625 54.455 -67.625 87.785 -67.625 122.125 C-55.745 122.125 -43.865 122.125 -31.625 122.125 C-31.625 92.095 -31.625 62.065 -31.625 31.125 C-25.19 30.63 -25.19 30.63 -18.625 30.125 C-17.635 29.795 -16.645 29.465 -15.625 29.125 C-22.555 28.63 -22.555 28.63 -29.625 28.125 C-28.14 22.68 -28.14 22.68 -26.625 17.125 C-27.615 17.62 -27.615 17.62 -28.625 18.125 C-27.46914715 14.21288267 -26.26965038 11.2504959 -23.625 8.125 C-22.965 8.455 -22.305 8.785 -21.625 9.125 C-22.285 10.445 -22.945 11.765 -23.625 13.125 C-22.965 13.125 -22.305 13.125 -21.625 13.125 C-21.398125 12.568125 -21.17125 12.01125 -20.9375 11.4375 C-19.26603234 8.49253316 -17.07223648 6.44343456 -14.625 4.125 C-15.285 4.125 -15.945 4.125 -16.625 4.125 C-16.625 3.465 -16.625 2.805 -16.625 2.125 C-17.285 1.795 -17.945 1.465 -18.625 1.125 C-12.37901527 0.20346127 -6.30909838 -0.03070388 0 0 Z " fill="#5A5A5A" transform="translate(355.625,236.875)"/>
<path d="M0 0 C10.89 0 21.78 0 33 0 C31.85589611 3.43231166 30.90500338 4.07080321 28.125 6.25 C24.20770227 9.54249576 22.57725718 12.16964988 21 17 C20.34 17 19.68 17 19 17 C19.01160156 17.58007812 19.02320313 18.16015625 19.03515625 18.7578125 C19.04417969 19.53898437 19.05320312 20.32015625 19.0625 21.125 C19.07410156 21.89070313 19.08570313 22.65640625 19.09765625 23.4453125 C19 26 19 26 18 32 C12.06 32 6.12 32 0 32 C0 21.44 0 10.88 0 0 Z " fill="#414141" transform="translate(265,236)"/>
<path d="M0 0 C11.88 0 23.76 0 36 0 C36.495 1.485 36.495 1.485 37 3 C37.66 2.67 38.32 2.34 39 2 C44.79009641 1.03097531 50.60022922 0.85743161 56.45727539 0.88647461 C57.24862885 0.88632858 58.0399823 0.88618256 58.85531616 0.8860321 C61.4361254 0.88672131 64.01685983 0.89446657 66.59765625 0.90234375 C68.40083273 0.90421146 70.20400972 0.9056337 72.00718689 0.90663147 C76.72697376 0.91042883 81.44672931 0.92023504 86.16650391 0.93133545 C90.99315975 0.94160969 95.81982072 0.94614192 100.64648438 0.95117188 C110.09766993 0.96186008 119.54883235 0.97890268 129 1 C129 1.99 129 2.98 129 4 C128.34 4 127.68 4 127 4 C126.731875 4.78375 126.46375 5.5675 126.1875 6.375 C125 9 125 9 122 11 C123.33333333 8.33333333 124.66666667 5.66666667 126 3 C125.42894531 3.08378906 124.85789062 3.16757813 124.26953125 3.25390625 C119.49524533 3.85353835 115.04381277 4.01724904 110.25 3.5625 C100.4996172 2.69754669 90.77844325 2.8776067 81 3 C79.50423487 3.01305499 78.00846636 3.0257268 76.51269531 3.03808594 C72.382939 3.07477093 68.25400635 3.13564669 64.12475586 3.20953369 C62.47038839 3.23631476 60.81590419 3.25671507 59.16137695 3.27044678 C45.76234102 3.06904208 45.76234102 3.06904208 34.43994141 9.50878906 C33.96476074 10.00088867 33.48958008 10.49298828 33 11 C32.29875 11.66 31.5975 12.32 30.875 13 C28.78401922 14.95103635 28.78401922 14.95103635 28 18 C27.34 18 26.68 18 26 18 C26 19.32 26 20.64 26 22 C25.34 22.33 24.68 22.66 24 23 C23.67 56.66 23.34 90.32 23 125 C35.54 125 48.08 125 61 125 C61 94.97 61 64.94 61 34 C61.33 34 61.66 34 62 34 C62 64.36 62 94.72 62 126 C48.8 126 35.6 126 22 126 C20.155281 124.155281 20.8799781 121.55483588 20.87557983 119.1006012 C20.87917511 118.25327927 20.88277039 117.40595734 20.88647461 116.53295898 C20.88632858 115.64523804 20.88618256 114.75751709 20.8860321 113.84289551 C20.88673157 110.89393716 20.89452552 107.94504113 20.90234375 104.99609375 C20.90420781 102.95728083 20.90563177 100.91846746 20.90663147 98.87965393 C20.91045759 93.50215426 20.92028868 88.12468142 20.93133545 82.74719238 C20.94154755 77.26440799 20.94612866 71.78161928 20.95117188 66.29882812 C20.96191086 55.53253838 20.97950842 44.76627561 21 34 C14.07 34 7.14 34 0 34 C0 22.78 0 11.56 0 0 Z M1 1 C1 11.56 1 22.12 1 33 C6.94 33 12.88 33 19 33 C19.65984723 29.04091662 20.12125692 26.00295662 20.0625 22.125 C20.05347656 21.34382813 20.04445313 20.56265625 20.03515625 19.7578125 C20.02355469 19.17773438 20.01195312 18.59765625 20 18 C20.66 18 21.32 18 22 18 C22.4640625 16.515 22.4640625 16.515 22.9375 15 C24.85157701 10.39307935 28.33647203 7.78426753 32.13671875 4.69921875 C32.75160156 4.13847656 33.36648438 3.57773438 34 3 C34 2.34 34 1.68 34 1 C23.11 1 12.22 1 1 1 Z " fill="#BFBFBF" transform="translate(264,235)"/>
<path d="M0 0 C-1.98 0.66 -3.96 1.32 -6 2 C-6 2.66 -6 3.32 -6 4 C-8.4216601 5.43505783 -9.76769523 6.00553107 -12.625 5.9375 C-13.40875 5.958125 -14.1925 5.97875 -15 6 C-17.18490007 8.67642489 -17.18490007 8.67642489 -17 11 C-22.90603976 14.54362386 -30.07048832 14.17463666 -36.7578125 14.23828125 C-37.99517654 14.25038887 -37.99517654 14.25038887 -39.25753784 14.26274109 C-40.99719185 14.27650518 -42.736872 14.28726126 -44.4765625 14.29516602 C-46.23152755 14.30665224 -47.98645859 14.32705058 -49.74121094 14.35668945 C-62.17428602 14.56609108 -72.74249673 13.90429654 -84 8 C-84 7.34 -84 6.68 -84 6 C-83.23196045 6.14074951 -82.4639209 6.28149902 -81.67260742 6.42651367 C-73.17030274 7.87364662 -64.92918021 8.35132637 -56.3125 8.3125 C-54.9932251 8.30686035 -53.6739502 8.3012207 -52.31469727 8.29541016 C-36.92466711 8.10465197 -23.39579041 5.41845291 -8.72436523 0.89404297 C-7.87688721 0.63510254 -7.02940918 0.37616211 -6.15625 0.109375 C-5.02413086 -0.24688965 -5.02413086 -0.24688965 -3.86914062 -0.61035156 C-2 -1 -2 -1 0 0 Z " fill="#477AB1" transform="translate(293,450)"/>
<path d="M0 0 C7.59 0 15.18 0 23 0 C23 40.92 23 81.84 23 124 C10.46 124 -2.08 124 -15 124 C-15.06782427 110.05672033 -15.12284435 96.11355055 -15.15543652 82.17014313 C-15.17108049 75.69539756 -15.19229596 69.22077089 -15.22631836 62.74609375 C-15.2589565 56.49560886 -15.27686256 50.24523822 -15.28463173 43.99467468 C-15.29016719 41.61209821 -15.30097658 39.22952786 -15.31719017 36.84700012 C-15.33902316 33.50528538 -15.3419644 30.16404042 -15.34057617 26.82226562 C-15.351362 25.84114807 -15.36214783 24.86003052 -15.3732605 23.84918213 C-15.34132147 16.72619474 -14.54017025 10.30386533 -9.3125 5 C-8.549375 4.34 -7.78625 3.68 -7 3 C-6.34 3.33 -5.68 3.66 -5 4 C-7.625 8.875 -7.625 8.875 -11 10 C-11.87032636 13.80559878 -12.17985362 17.41671947 -12.29663086 21.31616211 C-12.33567032 22.58472549 -12.37470978 23.85328888 -12.41493225 25.16029358 C-12.45273951 26.55346787 -12.49019905 27.94665164 -12.52734375 29.33984375 C-12.55797063 30.41513997 -12.55797063 30.41513997 -12.58921623 31.51215935 C-13.09709202 49.34918443 -13.32140204 67.19053154 -13.53222656 85.03308105 C-13.59292953 90.10496092 -13.65813722 95.17678493 -13.72252655 100.24861908 C-13.81833309 107.83237676 -13.90867551 115.4161811 -14 123 C-2.12 123 9.76 123 22 123 C22 82.74 22 42.48 22 1 C14.08 1.33 6.16 1.66 -2 2 C-1.34 1.34 -0.68 0.68 0 0 Z " fill="#6387B3" transform="translate(231,236)"/>
<path d="M0 0 C-3.51624755 1.94158017 -5.9715651 2.18311068 -10 2 C-10 2.33 -10 2.66 -10 3 C-3.35919248 3.74594585 -3.35919248 3.74594585 3.3125 4 C6.04318273 4 8.37432013 4.24980575 11 5 C11.495 5.99 11.495 5.99 12 7 C10.96182129 6.98952637 9.92364258 6.97905273 8.85400391 6.96826172 C4.95885745 6.9317392 1.06372576 6.90898358 -2.83154297 6.89013672 C-4.50930334 6.88015197 -6.18704664 6.86655943 -7.86474609 6.84912109 C-23.3863762 6.445456 -23.3863762 6.445456 -38 11 C-39.65211544 11.45274317 -41.32113048 11.84711944 -43 12.1875 C-44.2684375 12.45626953 -44.2684375 12.45626953 -45.5625 12.73046875 C-48.03021411 13.00334098 -49.65849506 12.76424119 -52 12 C-34.8678001 2.93001182 -19.22141181 -0.27502815 0 0 Z " fill="#1E2C67" transform="translate(329,114)"/>
<path d="M0 0 C2.20348536 3.30522804 2.24563385 4.27660999 2.22705078 8.11401367 C2.22689972 9.15486618 2.22674866 10.19571869 2.22659302 11.26811218 C2.21627045 12.39006485 2.20594788 13.51201752 2.1953125 14.66796875 C2.1924826 15.81791824 2.18965271 16.96786774 2.18673706 18.15266418 C2.17552833 21.83104796 2.15042224 25.50918962 2.125 29.1875 C2.11497111 31.67903295 2.1058451 34.1705697 2.09765625 36.66210938 C2.07728704 42.77490826 2.0381389 48.88718261 2 55 C-9.88 55 -21.76 55 -34 55 C-34 48.73 -34 42.46 -34 36 C-32 37 -32 37 -31.3125 39 C-30.88610029 43.09343723 -31.42508168 46.94019216 -32 51 C-28.091312 51.92055082 -24.44907765 52.13429682 -20.4375 52.125 C-19.32246094 52.12757813 -18.20742188 52.13015625 -17.05859375 52.1328125 C-13.80847399 52.0939415 -13.80847399 52.0939415 -10 51 C-5.05 52.485 -5.05 52.485 0 54 C0 36.18 0 18.36 0 0 Z " fill="#353535" transform="translate(322,304)"/>
<path d="M0 0 C0.33 0 0.66 0 1 0 C1 1.65 1 3.3 1 5 C1.66 5 2.32 5 3 5 C2.75552124 5.7748877 2.75552124 5.7748877 2.50610352 6.56542969 C1.84748481 9.73366209 1.88863107 12.71693238 1.90234375 15.953125 C1.9037587 16.61334656 1.90517365 17.27356812 1.90663147 17.95379639 C1.91220755 20.05257794 1.92475553 22.15125095 1.9375 24.25 C1.9425181 25.67708179 1.94708046 27.10416525 1.95117188 28.53125 C1.96216912 32.02086832 1.9794172 35.51042356 2 39 C5.10579776 40.03526592 6.4554628 39.97001193 9.625 39.5625 C17.97832839 38.63031698 25.54739707 39.15473971 34 40 C33.67 29.44 33.34 18.88 33 8 C33.99 8.33 34.98 8.66 36 9 C36 19.89 36 30.78 36 42 C24.12 42 12.24 42 0 42 C0 28.14 0 14.28 0 0 Z " fill="#326FA9" transform="translate(217,317)"/>
<path d="M0 0 C0.79120743 -0.00029205 1.58241486 -0.00058411 2.39759827 -0.00088501 C4.98393144 0.00049598 7.56996785 0.01599847 10.15625 0.03173828 C11.96085452 0.0354728 13.76546108 0.0383177 15.57006836 0.04031372 C20.29813324 0.04791564 25.02607342 0.06753428 29.75408936 0.08972168 C34.5873445 0.11025455 39.42061997 0.1193313 44.25390625 0.12939453 C53.72140867 0.15078366 63.18881893 0.18487768 72.65625 0.22705078 C72.65625 1.21705078 72.65625 2.20705078 72.65625 3.22705078 C71.99625 3.22705078 71.33625 3.22705078 70.65625 3.22705078 C70.388125 4.01080078 70.12 4.79455078 69.84375 5.60205078 C68.65625 8.22705078 68.65625 8.22705078 65.65625 10.22705078 C66.98958333 7.56038411 68.32291667 4.89371745 69.65625 2.22705078 C69.08519531 2.31083984 68.51414062 2.39462891 67.92578125 2.48095703 C63.15149533 3.08058913 58.70006277 3.24429982 53.90625 2.78955078 C44.1558672 1.92459747 34.43469325 2.10465748 24.65625 2.22705078 C23.16048487 2.24010577 21.66471636 2.25277758 20.16894531 2.26513672 C16.039189 2.30182171 11.91025635 2.36269748 7.78100586 2.43658447 C6.12663839 2.46336555 4.47215419 2.48376585 2.81762695 2.49749756 C-10.58140898 2.29609286 -10.58140898 2.29609286 -21.90380859 8.73583984 C-22.37898926 9.22793945 -22.85416992 9.72003906 -23.34375 10.22705078 C-24.045 10.88705078 -24.74625 11.54705078 -25.46875 12.22705078 C-27.55973078 14.17808713 -27.55973078 14.17808713 -28.34375 17.22705078 C-29.00375 17.22705078 -29.66375 17.22705078 -30.34375 17.22705078 C-30.34375 18.54705078 -30.34375 19.86705078 -30.34375 21.22705078 C-31.00375 21.22705078 -31.66375 21.22705078 -32.34375 21.22705078 C-31.00850784 14.10575924 -27.36423236 9.29674339 -21.609375 4.90283203 C-14.87052582 0.74514756 -7.70204086 -0.07600646 0 0 Z " fill="#9E9E9E" transform="translate(320.34375,235.77294921875)"/>
<path d="M0 0 C17.49 0 34.98 0 53 0 C52.25386143 3.73069283 51.46826597 6.57404607 50 10 C49.34 10 48.68 10 48 10 C48 10.99 48 11.98 48 13 C47.34 13 46.68 13 46 13 C45.690625 13.78375 45.38125 14.5675 45.0625 15.375 C44 18 44 18 43 20 C42.34 20 41.68 20 41 20 C40.505 21.485 40.505 21.485 40 23 C38.66667905 20.3333581 39.32897967 18.83319697 40 16 C40.66 16 41.32 16 42 16 C42.11214844 15.42765625 42.22429687 14.8553125 42.33984375 14.265625 C43.07223034 11.75210888 44.13854853 9.94069457 45.5625 7.75 C46.01753906 7.04359375 46.47257812 6.3371875 46.94140625 5.609375 C47.46541016 4.81273437 47.46541016 4.81273437 48 4 C43.22044647 2.64804757 38.50082565 2.66012198 33.5625 2.5625 C32.62083984 2.51673828 31.67917969 2.47097656 30.70898438 2.42382812 C25.63453078 2.22732059 25.63453078 2.22732059 21.22607422 4.36669922 C19.65619873 6.16807813 19.65619873 6.16807813 18 9 C17.67 8.01 17.34 7.02 17 6 C17.99 4.35 18.98 2.7 20 1 C13.73 1 7.46 1 1 1 C0.67 1.99 0.34 2.98 0 4 C-0.33 3.34 -0.66 2.68 -1 2 C-0.67 1.34 -0.34 0.68 0 0 Z " fill="#7B99BE" transform="translate(382,370)"/>
<path d="M0 0 C3.11055552 1.39319782 5.32640504 3.05599492 7.8125 5.375 C10.75842303 8.01654722 13.61923602 10.02773385 17.125 11.90234375 C21.00522493 14.1738921 24.78322023 16.85616308 28 20 C28 20.99 28 21.98 28 23 C27.34 23 26.68 23 26 23 C25.67 24.32 25.34 25.64 25 27 C19.88467893 24.33471513 16.38026688 21.67780024 12.5 17.3125 C12.03295654 16.78865723 11.56591309 16.26481445 11.0847168 15.72509766 C0 3.17528043 0 3.17528043 0 0 Z " fill="#302F61" transform="translate(165,431)"/>
<path d="M0 0 C5 6.59090909 5 6.59090909 5 11 C5.66 11 6.32 11 7 11 C8.89352986 14.24605118 9.64837858 17.49937944 10.49609375 21.1171875 C10.9570968 23.09195668 10.9570968 23.09195668 12.0625 25.125 C14.96339716 30.92679432 14 37.74264223 14 44 C-1.51 44 -17.02 44 -33 44 C-32.67 42.68 -32.34 41.36 -32 40 C-32 40.99 -32 41.98 -32 43 C-17.15 43 -2.3 43 13 43 C12.5889562 36.42943819 12.5889562 36.42943819 10 31 C9.95919217 29.00041636 9.95745644 26.99954746 10 25 C9.01 25 8.02 25 7 25 C6.81824219 24.20335937 6.63648438 23.40671875 6.44921875 22.5859375 C5.1263979 17.00973884 3.79116422 12.05067811 1 7 C1 6.34 1 5.68 1 5 C0.34 4.34 -0.32 3.68 -1 3 C-0.67 2.01 -0.34 1.02 0 0 Z " fill="#6F95BC" transform="translate(450,180)"/>
<path d="M0 0 C11.88 0 23.76 0 36 0 C36.495 1.485 36.495 1.485 37 3 C38.98 2.67 40.96 2.34 43 2 C40 4 40 4 36.75 5.625 C30.34859278 9.28682192 25.75297603 14.96625816 23.48828125 21.96875 C22.68703306 25.30194247 22.30481692 28.58605049 22 32 C21.67 32 21.34 32 21 32 C20.69443599 21.6617509 20.91171006 14.72103604 28.1484375 6.89453125 C30.08355028 4.91451079 32.04230461 2.95769539 34 1 C22.78 1 11.56 1 0 1 C0 0.67 0 0.34 0 0 Z " fill="#D6D6D6" transform="translate(264,235)"/>
<path d="M0 0 C-3.78792932 4.16672226 -7.18381013 5.22741501 -12.75 5.625 C-13.73484375 5.69976562 -14.7196875 5.77453125 -15.734375 5.8515625 C-16.48203125 5.90054687 -17.2296875 5.94953125 -18 6 C-18 6.66 -18 7.32 -18 8 C-24.34241995 9.15316726 -30.56688704 9.09507063 -37 9 C-36.34 8.67 -35.68 8.34 -35 8 C-35 7.01 -35 6.02 -35 5 C-33.11667969 4.70996094 -33.11667969 4.70996094 -31.1953125 4.4140625 C-29.50512472 4.15157953 -27.81502617 3.88852151 -26.125 3.625 C-24.81849487 3.42136841 -24.81849487 3.42136841 -23.4855957 3.21362305 C-19.02816159 2.50977385 -14.60144426 1.7578594 -10.1875 0.8125 C-6.74028377 0.08200409 -3.53913731 -0.18627038 0 0 Z " fill="#373636" transform="translate(297,435)"/>
<path d="M0 0 C1.78514497 0.0150734 3.57030224 0.02875711 5.35546875 0.04101562 C9.69562029 0.07381255 14.03517217 0.12544791 18.375 0.1875 C18.375 0.8475 18.375 1.5075 18.375 2.1875 C19.695 2.8475 21.015 3.5075 22.375 4.1875 C19 4.8125 19 4.8125 15.375 5.1875 C14.715 4.5275 14.055 3.8675 13.375 3.1875 C9.91671978 3.02080682 9.91671978 3.02080682 6.375 3.1875 C5.385 3.1875 4.395 3.1875 3.375 3.1875 C1.81093472 3.33877402 0.24840748 3.50652522 -1.3125 3.6875 C-2.12074219 3.7803125 -2.92898438 3.873125 -3.76171875 3.96875 C-4.68404297 4.07703125 -4.68404297 4.07703125 -5.625 4.1875 C-5.625 3.5275 -5.625 2.8675 -5.625 2.1875 C-6.20991211 2.25332275 -6.79482422 2.31914551 -7.39746094 2.38696289 C-10.05588724 2.68196279 -12.71536787 2.9660861 -15.375 3.25 C-16.75558594 3.4056543 -16.75558594 3.4056543 -18.1640625 3.56445312 C-19.05351562 3.65791016 -19.94296875 3.75136719 -20.859375 3.84765625 C-22.08479004 3.98119507 -22.08479004 3.98119507 -23.33496094 4.11743164 C-25.64468211 4.18810221 -27.4255391 3.86102969 -29.625 3.1875 C-20.11673727 -0.93729412 -10.13037271 -0.1492245 0 0 Z " fill="#525880" transform="translate(341.625,110.8125)"/>
<path d="M0 0 C0.66 0 1.32 0 2 0 C1.125 5.875 1.125 5.875 0 7 C-0.10746312 8.37829815 -0.14679331 9.76199051 -0.15821838 11.14442444 C-0.1680072 12.03769943 -0.17779602 12.93097443 -0.18788147 13.85131836 C-0.19363693 14.83890137 -0.1993924 15.82648438 -0.20532227 16.84399414 C-0.21522186 17.87801865 -0.22512146 18.91204315 -0.23532104 19.97740173 C-0.26704213 23.41329619 -0.29173524 26.84920451 -0.31640625 30.28515625 C-0.33696663 32.660277 -0.35796284 35.03539402 -0.37937927 37.4105072 C-0.43469461 43.67572005 -0.48406202 49.94096643 -0.53222656 56.20623779 C-0.58237268 62.59390259 -0.63809462 68.98151842 -0.69335938 75.36914062 C-0.80105661 87.91271834 -0.9026649 100.45633782 -1 113 C-1.33 113 -1.66 113 -2 113 C-2.04676324 99.15257358 -2.08187697 85.30515944 -2.10362434 71.45767021 C-2.11406192 65.02774187 -2.12822081 58.59786657 -2.15087891 52.16796875 C-2.17260797 45.96288659 -2.18456882 39.75785546 -2.18975449 33.55273819 C-2.19345011 31.18526532 -2.20066667 28.81779524 -2.21146011 26.45034409 C-2.22597566 23.13464062 -2.22797789 19.81914809 -2.22705078 16.50341797 C-2.23424133 15.5244606 -2.24143188 14.54550323 -2.24884033 13.53688049 C-2.23395207 8.61679984 -1.94104861 4.61439948 0 0 Z " fill="#E3F3F9" transform="translate(216,246)"/>
<path d="M0 0 C2.64 0 5.28 0 8 0 C8 18.81 8 37.62 8 57 C5.67779362 53.51669043 5.55287124 50.97513076 5.375 46.9375 C5.31807983 45.82109131 5.31807983 45.82109131 5.26000977 44.68212891 C4.65348648 30.47490551 4.92043558 16.21632644 5 2 C3.35 1.67 1.7 1.34 0 1 C0 0.67 0 0.34 0 0 Z " fill="#141856" transform="translate(245,238)"/>
<path d="M0 0 C2.01822917 0.06510417 4.03645833 0.13020833 6.0546875 0.1953125 C6.0546875 0.8553125 6.0546875 1.5153125 6.0546875 2.1953125 C15.6246875 2.1953125 25.1946875 2.1953125 35.0546875 2.1953125 C35.0546875 2.5253125 35.0546875 2.8553125 35.0546875 3.1953125 C27.8730252 5.09391288 21.27643357 5.46987229 13.8671875 5.3828125 C12.81337891 5.38216797 11.75957031 5.38152344 10.67382812 5.38085938 C5.69949174 5.35264953 0.9401384 5.25002988 -3.9453125 4.1953125 C-3.9453125 1.28822619 -2.86537429 0.28768818 0 0 Z " fill="#8C8B8C" transform="translate(250.9453125,433.8046875)"/>
<path d="M0 0 C7.74236877 -0.48389805 13.41695759 0.61130506 20 5 C20.66 5.99 21.32 6.98 22 8 C20.66597118 7.88265487 19.3327986 7.75557824 18 7.625 C17.2575 7.55539063 16.515 7.48578125 15.75 7.4140625 C13 7 13 7 9.65625 5.96875 C3.09724025 4.27505834 -3.77644267 4.79131082 -10.5 4.875 C-11.90884781 4.88504931 -13.31770255 4.89417171 -14.7265625 4.90234375 C-18.1512205 4.92580031 -21.57551939 4.95862616 -25 5 C-21.71252584 2.80835056 -20.51505175 2.71320614 -16.67578125 2.5859375 C-15.13374023 2.52792969 -15.13374023 2.52792969 -13.56054688 2.46875 C-12.48869141 2.4378125 -11.41683594 2.406875 -10.3125 2.375 C-9.22904297 2.33632812 -8.14558594 2.29765625 -7.02929688 2.2578125 C-4.35303533 2.16349491 -1.67678157 2.07789995 1 2 C0.67 1.34 0.34 0.68 0 0 Z " fill="#7C7C7C" transform="translate(337,153)"/>
<path d="M0 0 C-0.33 1.32 -0.66 2.64 -1 4 C-1.66 4 -2.32 4 -3 4 C-3.556875 5.051875 -4.11375 6.10375 -4.6875 7.1875 C-6.67904386 10.67447359 -8.94966271 13.35102288 -12 16 C-12.66 16 -13.32 16 -14 16 C-14.226875 16.5775 -14.45375 17.155 -14.6875 17.75 C-16.33199647 20.56913681 -18.4355467 22.01254869 -21 24 C-21.66 24.99 -22.32 25.98 -23 27 C-24.32 26.34 -25.64 25.68 -27 25 C-22.66666667 20.66666667 -18.33333333 16.33333333 -14 12 C-13.113125 11.071875 -12.22625 10.14375 -11.3125 9.1875 C-9 7 -9 7 -7 7 C-6.731875 6.401875 -6.46375 5.80375 -6.1875 5.1875 C-3.37142857 0 -3.37142857 0 0 0 Z " fill="#44507E" transform="translate(373,388)"/>
<path d="M0 0 C-0.33 0.66 -0.66 1.32 -1 2 C-3.31 2 -5.62 2 -8 2 C-8 2.66 -8 3.32 -8 4 C-7.34 4 -6.68 4 -6 4 C-6 4.66 -6 5.32 -6 6 C-7.01320313 6.18175781 -7.01320313 6.18175781 -8.046875 6.3671875 C-8.93890625 6.53476563 -9.8309375 6.70234375 -10.75 6.875 C-11.63171875 7.03742188 -12.5134375 7.19984375 -13.421875 7.3671875 C-15.89225342 7.97355311 -17.74456028 8.85896061 -20 10 C-21.65211544 10.45274317 -23.32113048 10.84711944 -25 11.1875 C-26.2684375 11.45626953 -26.2684375 11.45626953 -27.5625 11.73046875 C-30.03021411 12.00334098 -31.65849506 11.76424119 -34 11 C-23.82349042 5.61243611 -11.76233271 -0.57377233 0 0 Z " fill="#414A73" transform="translate(311,115)"/>
<path d="M0 0 C0 4.07010553 -1.6151386 5.75393865 -4 9 C-4.70125 9.66 -5.4025 10.32 -6.125 11 C-8.21256659 12.93963802 -8.21256659 12.93963802 -8.9375 15.9375 C-10.22897716 19.65999299 -12.13632116 21.35109708 -15 24 C-15.66 24.99 -16.32 25.98 -17 27 C-3.14 27.495 -3.14 27.495 11 28 C11 28.33 11 28.66 11 29 C0.77 29 -9.46 29 -20 29 C-17.52631579 21.57894737 -17.52631579 21.57894737 -15 18 C-14.34 18 -13.68 18 -13 18 C-12.67 16.35 -12.34 14.7 -12 13 C-11.34 13 -10.68 13 -10 13 C-10 12.34 -10 11.68 -10 11 C-9.34 10.67 -8.68 10.34 -8 10 C-7.3503125 8.88625 -7.3503125 8.88625 -6.6875 7.75 C-4.80887696 4.68854024 -2.60110145 2.46050137 0 0 Z " fill="#AAAAAA" transform="translate(192,195)"/>
<path d="M0 0 C2.08450717 0.2831556 4.16758367 0.57685669 6.25 0.875 C7.99023438 1.11863281 7.99023438 1.11863281 9.765625 1.3671875 C13 2 13 2 14.87695312 3.01367188 C17.43044776 4.19997803 19.39488589 4.31610067 22.203125 4.4140625 C23.67265625 4.47207031 23.67265625 4.47207031 25.171875 4.53125 C26.18765625 4.5621875 27.2034375 4.593125 28.25 4.625 C29.796875 4.68300781 29.796875 4.68300781 31.375 4.7421875 C33.9164894 4.83631674 36.45797433 4.92194979 39 5 C39 5.33 39 5.66 39 6 C37.02 6.33 35.04 6.66 33 7 C33 7.33 33 7.66 33 8 C21.10644585 8.54963793 10.78339565 7.69979484 0 2 C0 1.34 0 0.68 0 0 Z " fill="#396DA9" transform="translate(209,456)"/>
<path d="M0 0 C0.99 0 1.98 0 3 0 C3 0.66 3 1.32 3 2 C5.31 2.33 7.62 2.66 10 3 C9.67 2.01 9.34 1.02 9 0 C13.08881389 0.54326898 15.21912921 2.69712814 18.1875 5.4375 C19.06792969 6.24058594 19.94835937 7.04367188 20.85546875 7.87109375 C23 10 23 10 24 12 C20.36058108 13.21313964 19.41226216 12.66242173 15.9375 11.25 C14.62072266 10.73179687 14.62072266 10.73179687 13.27734375 10.203125 C11 9 11 9 9 6 C6.82389333 4.77803891 6.82389333 4.77803891 4.375 3.8125 C3.55773437 3.46832031 2.74046875 3.12414062 1.8984375 2.76953125 C1.27195312 2.51558594 0.64546875 2.26164063 0 2 C0 1.34 0 0.68 0 0 Z " fill="#3F3F41" transform="translate(358,155)"/>
<path d="M0 0 C2.97 0.33 5.94 0.66 9 1 C9 1.66 9 2.32 9 3 C9.515625 3.12375 10.03125 3.2475 10.5625 3.375 C13.7268802 4.18637954 16.85903321 5.10258092 20 6 C20.763125 6.12375 21.52625 6.2475 22.3125 6.375 C24 7 24 7 25.25 9.0625 C25.4975 9.701875 25.745 10.34125 26 11 C26.66 11 27.32 11 28 11 C30.29648649 13.5614657 31 14.47967572 31 18 C28.48103951 16.880462 26.60265345 15.68018448 24.4375 13.9375 C22.07973981 11.83615651 22.07973981 11.83615651 19 11 C19 10.34 19 9.68 19 9 C15.7 8.01 12.4 7.02 9 6 C9 5.34 9 4.68 9 4 C6.03 3.01 3.06 2.02 0 1 C0 0.67 0 0.34 0 0 Z " fill="#555655" transform="translate(360,161)"/>
<path d="M0 0 C1.17852539 0.05027344 1.17852539 0.05027344 2.38085938 0.1015625 C3.17814453 0.11960937 3.97542969 0.13765625 4.796875 0.15625 C6.76288387 0.20334003 8.72827431 0.27508351 10.69335938 0.3515625 C9.22149546 6.44379923 6.53287714 11.79658358 3.69335938 17.3515625 C3.03335937 17.3515625 2.37335938 17.3515625 1.69335938 17.3515625 C2.73433549 13.48507978 3.73034346 9.85694807 5.69335938 6.3515625 C6.35335938 6.3515625 7.01335937 6.3515625 7.69335938 6.3515625 C7.36335938 5.3615625 7.03335937 4.3715625 6.69335938 3.3515625 C3.25927597 1.82530321 0.28313532 2.72725364 -3.30664062 3.3515625 C-3.96664063 3.0215625 -4.62664062 2.6915625 -5.30664062 2.3515625 C-5.53351563 2.8878125 -5.76039063 3.4240625 -5.99414062 3.9765625 C-7.72495651 7.10851506 -9.99149779 9.63126967 -12.30664062 12.3515625 C-12.96664063 13.3415625 -13.62664062 14.3315625 -14.30664062 15.3515625 C-13.77224139 10.80916902 -11.9636418 8.0244759 -9.30664062 4.3515625 C-8.94699219 3.63613281 -8.58734375 2.92070312 -8.21679688 2.18359375 C-5.55766798 -0.36677732 -3.5774424 -0.06089264 0 0 Z " fill="#2C2D61" transform="translate(389.306640625,370.6484375)"/>
<path d="M0 0 C0.33 0 0.66 0 1 0 C1.67258667 2.33163378 2.33847444 4.6652039 3 7 C3.20625 7.66 3.4125 8.32 3.625 9 C4.17834532 11.95117501 4 14.99739696 4 18 C-5.9 18 -15.8 18 -26 18 C-25.67 16.68 -25.34 15.36 -25 14 C-24.34 14.33 -23.68 14.66 -23 15 C-19.48983463 15.07118206 -15.99068114 14.99668166 -12.48046875 14.9375 C-9.46851006 14.9915868 -6.92730414 15.38719066 -4 16 C-0.77888408 15.61666338 -0.77888408 15.61666338 2 15 C1.67 13.824375 1.34 12.64875 1 11.4375 C0.0030467 7.4988324 -0.16869203 4.04860871 0 0 Z " fill="#4073A7" transform="translate(459,205)"/>
<path d="M0 0 C0.83920486 0.00141495 1.67840973 0.0028299 2.54304504 0.00428772 C5.22274341 0.0098841 7.90235815 0.0224359 10.58203125 0.03515625 C12.39908733 0.04017172 14.21614473 0.04473454 16.03320312 0.04882812 C20.48701138 0.05985234 24.94075714 0.07711447 29.39453125 0.09765625 C29.39453125 0.42765625 29.39453125 0.75765625 29.39453125 1.09765625 C27.77611328 1.1116748 27.77611328 1.1116748 26.125 1.12597656 C22.09155187 1.16608833 18.05884962 1.23190398 14.02587891 1.30517578 C12.28606811 1.33326328 10.5461326 1.35453819 8.80615234 1.36865234 C6.29330155 1.39025278 3.78193092 1.43698611 1.26953125 1.48828125 C0.5014917 1.48950989 -0.26654785 1.49073853 -1.05786133 1.49200439 C-7.22507509 1.65630455 -12.63363804 3.28408804 -17.19970703 7.60699463 C-17.6636084 8.09891296 -18.12750977 8.5908313 -18.60546875 9.09765625 C-19.30671875 9.75765625 -20.00796875 10.41765625 -20.73046875 11.09765625 C-22.82144953 13.0486926 -22.82144953 13.0486926 -23.60546875 16.09765625 C-24.26546875 16.09765625 -24.92546875 16.09765625 -25.60546875 16.09765625 C-25.60546875 17.41765625 -25.60546875 18.73765625 -25.60546875 20.09765625 C-26.26546875 20.09765625 -26.92546875 20.09765625 -27.60546875 20.09765625 C-26.27166059 12.98401273 -22.61566762 7.95154011 -16.6953125 3.73828125 C-11.02491496 0.41550053 -6.42353161 -0.04064347 0 0 Z " fill="#929292" transform="translate(315.60546875,236.90234375)"/>
<path d="M0 0 C2 1 2 1 2.6875 3 C3.11389971 7.09343723 2.57491832 10.94019216 2 15 C5.908688 15.92055082 9.55092235 16.13429682 13.5625 16.125 C14.67753906 16.12757813 15.79257812 16.13015625 16.94140625 16.1328125 C19.87486106 16.11475891 19.87486106 16.11475891 22.13671875 15.43359375 C25.5636242 14.63613776 28.68105167 16.05963131 32 17 C32 17.33 32 17.66 32 18 C21.44 18 10.88 18 0 18 C0 12.06 0 6.12 0 0 Z " fill="#191919" transform="translate(288,340)"/>
<path d="M0 0 C0.86140091 0.0028299 1.72280182 0.00565979 2.61030579 0.00857544 C5.36143894 0.01977013 8.1122465 0.04487329 10.86328125 0.0703125 C12.72851092 0.08034323 14.5937457 0.08946891 16.45898438 0.09765625 C21.03137545 0.11970712 25.60352314 0.15423201 30.17578125 0.1953125 C30.67078125 1.6803125 30.67078125 1.6803125 31.17578125 3.1953125 C32.12453125 3.3190625 33.07328125 3.4428125 34.05078125 3.5703125 C37.17578125 4.1953125 37.17578125 4.1953125 39.17578125 6.1953125 C36.03984821 5.70142702 32.95214207 5.14453325 29.85546875 4.44140625 C16.03048193 1.5032417 2.25159167 1.90402702 -11.82421875 2.1953125 C-7.89117403 -0.42671731 -4.55796806 -0.05617277 0 0 Z " fill="#638AB6" transform="translate(302.82421875,122.8046875)"/>
<path d="M0 0 C13.53 0 27.06 0 41 0 C41 0.33 41 0.66 41 1 C28.79 1.33 16.58 1.66 4 2 C4.7937413 8.58091554 4.7937413 8.58091554 8 13 C7.67 13.99 7.34 14.98 7 16 C7 15.34 7 14.68 7 14 C6.34 14 5.68 14 5 14 C5 13.01 5 12.02 5 11 C4.34 11 3.68 11 3 11 C2.49632243 9.54293274 1.99717444 8.08429904 1.5 6.625 C1.2215625 5.81289063 0.943125 5.00078125 0.65625 4.1640625 C0 2 0 2 0 0 Z " fill="#ABABAB" transform="translate(144,370)"/>
<path d="M0 0 C3.4826218 -0.39801392 4.80799236 -0.12373826 7.8125 1.8125 C10 4 10 4 10 7 C9.34 7 8.68 7 8 7 C7.67 8.32 7.34 9.64 7 11 C5.68 10.34 4.36 9.68 3 9 C3 7.68 3 6.36 3 5 C2.01 5 1.02 5 0 5 C0 3.35 0 1.7 0 0 Z " fill="#252B62" transform="translate(183,447)"/>
<path d="M0 0 C0.99 0.33 1.98 0.66 3 1 C2.195625 1.763125 1.39125 2.52625 0.5625 3.3125 C-2.16799024 5.79430898 -2.16799024 5.79430898 -3 9 C-5.0625 9.6875 -5.0625 9.6875 -7 10 C-7.04125 10.598125 -7.0825 11.19625 -7.125 11.8125 C-8 14 -8 14 -11.0625 15.75 C-12.031875 16.1625 -13.00125 16.575 -14 17 C-14 16.01 -14 15.02 -14 14 C-13.34 14 -12.68 14 -12 14 C-11.731875 13.236875 -11.46375 12.47375 -11.1875 11.6875 C-10.00338596 9.00766296 -9.09423965 7.9549553 -7 6 C-6.14921875 5.18789063 -6.14921875 5.18789063 -5.28125 4.359375 C-4.6934375 3.82828125 -4.105625 3.2971875 -3.5 2.75 C-2.9121875 2.20859375 -2.324375 1.6671875 -1.71875 1.109375 C-1.1515625 0.74328125 -0.584375 0.3771875 0 0 Z " fill="#4C709F" transform="translate(398,417)"/>
<path d="M0 0 C3.60654039 2.40436026 3.85452932 3.94679607 5 8 C5.66 8 6.32 8 7 8 C9.29648649 10.5614657 10 11.47967572 10 15 C10.66 15 11.32 15 12 15 C12.2475 15.78375 12.495 16.5675 12.75 17.375 C14.15389099 20.32317108 15.00675737 20.9024777 18 22 C18 22.99 18 23.98 18 25 C19.32 25.66 20.64 26.32 22 27 C21.67 27.66 21.34 28.32 21 29 C19.38869977 27.61240749 17.78624159 26.21454377 16.1875 24.8125 C15.29417969 24.03519531 14.40085938 23.25789063 13.48046875 22.45703125 C9.76149235 18.77319479 7.80729017 14.86578122 6 10 C5.34 10 4.68 10 4 10 C3.32845067 8.71086513 2.66291141 7.41859796 2 6.125 C1.62875 5.40570313 1.2575 4.68640625 0.875 3.9453125 C0 2 0 2 0 0 Z " fill="#BABABA" transform="translate(152,390)"/>
<path d="M0 0 C2.75 1.4375 2.75 1.4375 3.625 3.5625 C3.686875 4.490625 3.686875 4.490625 3.75 5.4375 C2.76 5.4375 1.77 5.4375 0.75 5.4375 C0.75 6.0975 0.75 6.7575 0.75 7.4375 C-1.89 7.1075 -4.53 6.7775 -7.25 6.4375 C-7.58 5.1175 -7.91 3.7975 -8.25 2.4375 C-5.14531454 0.06332876 -3.93576726 -0.68119049 0 0 Z " fill="#476FA5" transform="translate(350.25,124.5625)"/>
<path d="M0 0 C0.66 0.33 1.32 0.66 2 1 C-0.625 5.875 -0.625 5.875 -4 7 C-5.00643768 11.22990358 -5.2125027 15.37974123 -5.31640625 19.70703125 C-5.33718735 20.43242599 -5.35796844 21.15782074 -5.37937927 21.90519714 C-5.44442215 24.20754113 -5.50354773 26.50999282 -5.5625 28.8125 C-5.60572835 30.37956814 -5.64934398 31.94662565 -5.69335938 33.51367188 C-5.80005668 37.34233936 -5.90144969 41.1711145 -6 45 C-6.33 45 -6.66 45 -7 45 C-7.04955872 40.10702988 -7.0857946 35.21420695 -7.10986328 30.32104492 C-7.11990057 28.65760756 -7.13353331 26.99418775 -7.15087891 25.33081055 C-7.17522749 22.93533995 -7.18650588 20.54010332 -7.1953125 18.14453125 C-7.20563507 17.4047554 -7.21595764 16.66497955 -7.22659302 15.90278625 C-7.22787865 9.94237049 -6.45111477 6.55476582 -2.375 2.1875 C-1.59125 1.465625 -0.8075 0.74375 0 0 Z " fill="#346FA9" transform="translate(224,239)"/>
<path d="M0 0 C5.28 0 10.56 0 16 0 C16 0.66 16 1.32 16 2 C17.65 2 19.3 2 21 2 C18.83250997 4.49261353 17.335283 5.7141186 14 6 C10.8125 5.1875 10.8125 5.1875 8 4 C7.67 3.34 7.34 2.68 7 2 C4.67843403 1.59270772 2.3431213 1.25561323 0 1 C0 0.67 0 0.34 0 0 Z " fill="#34629E" transform="translate(326,122)"/>
<path d="M0 0 C10.5781212 -0.2065143 20.66911527 0.69179799 31 3 C31 3.66 31 4.32 31 5 C25.555 4.505 25.555 4.505 20 4 C20 3.34 20 2.68 20 2 C7.625 2.495 7.625 2.495 -5 3 C-5 2.67 -5 2.34 -5 2 C-3.35 2 -1.7 2 0 2 C0 1.34 0 0.68 0 0 Z " fill="#2E5191" transform="translate(322,120)"/>
<path d="M0 0 C-1.98 0.66 -3.96 1.32 -6 2 C-6 2.66 -6 3.32 -6 4 C-9.59462331 6.25998595 -12.56595675 6.20868087 -16.75 6.125 C-17.92046875 6.10695313 -19.0909375 6.08890625 -20.296875 6.0703125 C-21.63492187 6.03550781 -21.63492187 6.03550781 -23 6 C-18.92617263 3.8617813 -14.77401271 2.60784686 -10.375 1.3125 C-9.59898437 1.07466797 -8.82296875 0.83683594 -8.0234375 0.59179688 C-2.24017687 -1.12008843 -2.24017687 -1.12008843 0 0 Z " fill="#4F7CAA" transform="translate(293,450)"/>
<path d="M0 0 C0.66 0.33 1.32 0.66 2 1 C-0.91883061 6.35118945 -4.10122119 9.16612223 -10 11 C-13 10.75 -13 10.75 -15 10 C-7.8 4 -7.8 4 -3 4 C-3 3.34 -3 2.68 -3 2 C-2.01 2 -1.02 2 0 2 C0 1.34 0 0.68 0 0 Z " fill="#5076A5" transform="translate(308,439)"/>
<path d="M0 0 C1.2065625 0.0309375 1.2065625 0.0309375 2.4375 0.0625 C2.1075 0.7225 1.7775 1.3825 1.4375 2.0625 C0.7775 2.0625 0.1175 2.0625 -0.5625 2.0625 C-0.5625 2.7225 -0.5625 3.3825 -0.5625 4.0625 C-2.49609375 5.71875 -2.49609375 5.71875 -5 7.5625 C-8.31106792 9.86160263 -8.31106792 9.86160263 -10.5625 13.0625 C-12.625 13.6875 -12.625 13.6875 -14.5625 14.0625 C-14.8925 13.0725 -15.2225 12.0825 -15.5625 11.0625 C-14.27533353 10.05671411 -12.98261342 9.05803202 -11.6875 8.0625 C-10.96820313 7.505625 -10.24890625 6.94875 -9.5078125 6.375 C-7.5625 5.0625 -7.5625 5.0625 -5.5625 5.0625 C-5.253125 4.423125 -4.94375 3.78375 -4.625 3.125 C-3.05351796 0.07447605 -3.05351796 0.07447605 0 0 Z " fill="#3B5F93" transform="translate(381.5625,433.9375)"/>
<path d="M0 0 C1.32 0 2.64 0 4 0 C3.67 0.99 3.34 1.98 3 3 C-3.46490554 6.09281081 -9.88072026 7.5476369 -17 7 C-17 6.34 -17 5.68 -17 5 C-16.43152344 4.87882812 -15.86304688 4.75765625 -15.27734375 4.6328125 C-7.07649893 3.44658068 -7.07649893 3.44658068 0 0 Z " fill="#2F4274" transform="translate(316,472)"/>
<path d="M0 0 C1.31471568 0.28151087 2.62675767 0.57553339 3.9375 0.875 C4.66839844 1.03742188 5.39929688 1.19984375 6.15234375 1.3671875 C8 2 8 2 9 4 C10.88263881 4.90343684 10.88263881 4.90343684 13.0625 5.625 C13.79597656 5.88539063 14.52945313 6.14578125 15.28515625 6.4140625 C16.13400391 6.70410156 16.13400391 6.70410156 17 7 C17 7.66 17 8.32 17 9 C17.84304687 9.12117188 18.68609375 9.24234375 19.5546875 9.3671875 C20.65039062 9.53476562 21.74609375 9.70234375 22.875 9.875 C23.96554688 10.03742188 25.05609375 10.19984375 26.1796875 10.3671875 C29 11 29 11 31 13 C25.00877074 12.75445782 20.26516037 12.05719964 15.01171875 9.10546875 C12.81210579 7.8967494 10.5691858 6.95718435 8.25 6 C4.80816093 4.5019975 2.42255058 2.94919201 0 0 Z " fill="#A0B6D1" transform="translate(184,444)"/>
<path d="M0 0 C0.99386719 0.02707031 1.98773438 0.05414063 3.01171875 0.08203125 C4.15060547 0.13423828 4.15060547 0.13423828 5.3125 0.1875 C5.3125 0.5175 5.3125 0.8475 5.3125 1.1875 C4.44238281 1.33445312 4.44238281 1.33445312 3.5546875 1.484375 C-4.44582724 3.01582667 -9.01615113 6.35861366 -14.6875 12.1875 C-15.6775 12.6825 -15.6775 12.6825 -16.6875 13.1875 C-16.625 11 -16.625 11 -15.6875 8.1875 C-14.04028955 6.73507536 -12.3301171 5.57366999 -10.4765625 4.3984375 C-8.62402075 3.26404363 -8.62402075 3.26404363 -7.31640625 1.55078125 C-4.92472113 -0.45089287 -3.05888116 -0.10796051 0 0 Z " fill="#173680" transform="translate(236.6875,269.8125)"/>
<path d="M0 0 C2.08450717 0.2831556 4.16758367 0.57685669 6.25 0.875 C7.99023438 1.11863281 7.99023438 1.11863281 9.765625 1.3671875 C12.58193313 1.91820431 14.55217557 2.55796482 17 4 C17 4.66 17 5.32 17 6 C10.54487966 6.56131481 5.84560277 4.63463787 0 2 C0 1.34 0 0.68 0 0 Z " fill="#4670A7" transform="translate(209,456)"/>
<path d="M0 0 C0.66 0 1.32 0 2 0 C2.75667376 7.53181418 3.14364008 14.50280391 2 22 C1.34 21.67 0.68 21.34 0 21 C0 14.07 0 7.14 0 0 Z " fill="#1B3E7C" transform="translate(217,284)"/>
<path d="M0 0 C0.99 0.495 0.99 0.495 2 1 C1.67 8.26 1.34 15.52 1 23 C1.99 23 2.98 23 4 23 C3.40138258 25.35171131 2.73075648 27.6859378 2 30 C1.34 30.33 0.68 30.66 0 31 C0 20.77 0 10.54 0 0 Z " fill="#2A65A4" transform="translate(218,253)"/>
<path d="M0 0 C0.495 0.99 0.495 0.99 1 2 C-10.88 1.67 -22.76 1.34 -35 1 C-35 0.67 -35 0.34 -35 0 C-31.50014278 -0.16975572 -28.00009554 -0.33523723 -24.5 -0.5 C-23.51773437 -0.54769531 -22.53546875 -0.59539062 -21.5234375 -0.64453125 C-4.71539211 -1.4289067 -4.71539211 -1.4289067 0 0 Z " fill="#233979" transform="translate(340,119)"/>
<path d="M0 0 C-0.62287215 2.7070982 -1.4401901 5.18526004 -2.5 7.75 C-4.07615719 11.84032013 -4.61099802 15.64317785 -5 20 C-5.33 20 -5.66 20 -6 20 C-6.3853211 6.96330275 -6.3853211 6.96330275 -4 1 C-2 0 -2 0 0 0 Z " fill="#E3E3E3" transform="translate(291,247)"/>
<path d="M0 0 C0.33 0.66 0.66 1.32 1 2 C0.67 2.66 0.34 3.32 0 4 C-0.99 4 -1.98 4 -3 4 C-3.33 5.65 -3.66 7.3 -4 9 C-4.886875 9.268125 -5.77375 9.53625 -6.6875 9.8125 C-10.00632551 10.87472632 -10.00632551 10.87472632 -12.75 12.6875 C-13.4925 13.120625 -14.235 13.55375 -15 14 C-15.66 13.67 -16.32 13.34 -17 13 C-15.54550599 11.9944239 -14.08627557 10.99569565 -12.625 10 C-11.81289063 9.443125 -11.00078125 8.88625 -10.1640625 8.3125 C-8 7 -8 7 -6 7 C-6 6.01 -6 5.02 -6 4 C-4.68 3.67 -3.36 3.34 -2 3 C-2 2.34 -2 1.68 -2 1 C-1.34 0.67 -0.68 0.34 0 0 Z M-8 10 C-6 11 -6 11 -6 11 Z " fill="#6179A0" transform="translate(345,414)"/>
<path d="M0 0 C3 1 3 1 4.1875 2.875 C5 5 5 5 5 8 C5.66 8 6.32 8 7 8 C8.23921302 10.97411124 9.30058404 13.85262818 10 17 C7 16 7 16 5.4296875 13.41796875 C4.91664063 12.35191406 4.40359375 11.28585938 3.875 10.1875 C3.35679687 9.12917969 2.83859375 8.07085937 2.3046875 6.98046875 C1.26867178 4.61376219 0.50023081 2.51945518 0 0 Z " fill="#3C5080" transform="translate(400,173)"/>
<path d="M0 0 C0.66 0.33 1.32 0.66 2 1 C1.67 2.32 1.34 3.64 1 5 C0.34 5 -0.32 5 -1 5 C-1.20496094 5.62648438 -1.40992188 6.25296875 -1.62109375 6.8984375 C-1.89050781 7.71570313 -2.15992188 8.53296875 -2.4375 9.375 C-2.70433594 10.18710937 -2.97117187 10.99921875 -3.24609375 11.8359375 C-4 14 -4 14 -5 16 C-5.66 16 -6.32 16 -7 16 C-7.33 16.99 -7.66 17.98 -8 19 C-9.33332095 16.3333581 -8.67102033 14.83319697 -8 12 C-7.34 12 -6.68 12 -6 12 C-5.88785156 11.42765625 -5.77570313 10.8553125 -5.66015625 10.265625 C-4.92776966 7.75210888 -3.86145147 5.94069457 -2.4375 3.75 C-1.98246094 3.04359375 -1.52742188 2.3371875 -1.05859375 1.609375 C-0.70925781 1.07828125 -0.35992187 0.5471875 0 0 Z " fill="#4578AB" transform="translate(430,374)"/>
<path d="M0 0 C0.66 0.99 1.32 1.98 2 3 C0.50260417 4.20442708 -0.99479167 5.40885417 -2.4921875 6.61328125 C-4.25292107 8.12270545 -4.25292107 8.12270545 -6 11 C-7.32 10.34 -8.64 9.68 -10 9 C-8.71142987 7.68445979 -7.41904109 6.37265903 -6.125 5.0625 C-5.04605469 3.96615234 -5.04605469 3.96615234 -3.9453125 2.84765625 C-2 1 -2 1 0 0 Z " fill="#576592" transform="translate(356,404)"/>
<path d="M0 0 C2.0625 0.4375 2.0625 0.4375 4 1 C1.28817788 3.60334924 0.10866187 3.99456691 -3.75 4.1875 C-4.8225 4.125625 -5.895 4.06375 -7 4 C-7 4.66 -7 5.32 -7 6 C-11.62197306 8.21854707 -14.76824163 9.38281159 -20 9 C-17.14521674 7.09681116 -15.58058692 6.5380901 -12.3125 5.875 C-11.50425781 5.70742188 -10.69601562 5.53984375 -9.86328125 5.3671875 C-9.24839844 5.24601562 -8.63351562 5.12484375 -8 5 C-8 4.34 -8 3.68 -8 3 C-6.865625 2.690625 -5.73125 2.38125 -4.5625 2.0625 C-1.21224901 1.37075469 -1.21224901 1.37075469 0 0 Z " fill="#ABB6CD" transform="translate(330,469)"/>
<path d="M0 0 C5.66710699 1.31793186 7.66437233 3.48709197 11 8 C10.01 8.33 9.02 8.66 8 9 C7.443125 8.38125 6.88625 7.7625 6.3125 7.125 C3.93354822 4.93893621 2.03642904 4.01214301 -1 3 C-0.67 2.01 -0.34 1.02 0 0 Z " fill="#323233" transform="translate(371,159)"/>
<path d="M0 0 C-0.33 1.32 -0.66 2.64 -1 4 C-6.38490641 4.91657981 -11.54230189 5.11138159 -17 5 C-14.46394931 2.46394931 -12.53123444 2.20749627 -9.0625 1.375 C-8.00160156 1.11460937 -6.94070313 0.85421875 -5.84765625 0.5859375 C-3 0 -3 0 0 0 Z " fill="#949595" transform="translate(305,431)"/>
<path d="M0 0 C0.66 0 1.32 0 2 0 C2.92188461 2.76565382 3.11785222 4.38283702 3.09765625 7.23046875 C3.09282227 8.43413086 3.09282227 8.43413086 3.08789062 9.66210938 C3.07532227 10.91217773 3.07532227 10.91217773 3.0625 12.1875 C3.05798828 13.03248047 3.05347656 13.87746094 3.04882812 14.74804688 C3.03705403 16.83206155 3.0191189 18.91603977 3 21 C0.9859044 17.9788566 0.73163404 17.19339983 0.5859375 13.76953125 C0.54726562 12.96708984 0.50859375 12.16464844 0.46875 11.33789062 C0.4378125 10.50451172 0.406875 9.67113281 0.375 8.8125 C0.33632812 7.96751953 0.29765625 7.12253906 0.2578125 6.25195312 C0.16363721 4.16832476 0.08073325 2.08419247 0 0 Z " fill="#172B6E" transform="translate(250,274)"/>
<path d="M0 0 C2.97 0.33 5.94 0.66 9 1 C9 1.66 9 2.32 9 3 C9.53625 3.0825 10.0725 3.165 10.625 3.25 C13.8352431 4.26376098 16.26292392 6.07160549 19 8 C15.38970831 8 12.44193324 7.03907418 9 6 C9 5.34 9 4.68 9 4 C6.03 3.01 3.06 2.02 0 1 C0 0.67 0 0.34 0 0 Z " fill="#9A9A9C" transform="translate(360,161)"/>
<path d="M0 0 C3.91402949 1.26941497 5.79072873 2.51167694 8 6 C7.01 6 6.02 6 5 6 C4.67 5.34 4.34 4.68 4 4 C1.97536745 3.34786708 1.97536745 3.34786708 0 3 C0 2.01 0 1.02 0 0 Z M3 6 C3.66 6 4.32 6 5 6 C5 7.65 5 9.3 5 11 C5.99 11 6.98 11 8 11 C8 11.99 8 12.98 8 14 C4.63279613 12.60667426 3.0140476 11.0210714 1 8 C1.66 7.67 2.32 7.34 3 7 C3 6.67 3 6.34 3 6 Z " fill="#52557E" transform="translate(178,441)"/>
<path d="M0 0 C4.95 0 9.9 0 15 0 C14.67 0.66 14.34 1.32 14 2 C10.85069107 3.04976964 8.61185544 3.10131595 5.3125 3.0625 C4.31863281 3.05347656 3.32476562 3.04445313 2.30078125 3.03515625 C1.16189453 3.01775391 1.16189453 3.01775391 0 3 C0 2.01 0 1.02 0 0 Z " fill="#292929" transform="translate(326,265)"/>
<path d="M0 0 C2.99220268 1.36370299 5.29026529 2.94908083 7.75 5.125 C8.67039063 5.93324219 8.67039063 5.93324219 9.609375 6.7578125 C10.06828125 7.16773438 10.5271875 7.57765625 11 8 C10.01 9.32 9.02 10.64 8 12 C6.66081194 10.37982158 5.3288031 8.75370657 4 7.125 C3.2575 6.22007812 2.515 5.31515625 1.75 4.3828125 C0 2 0 2 0 0 Z " fill="#5C5978" transform="translate(165,431)"/>
<path d="M0 0 C1.32 0 2.64 0 4 0 C7 3.21428571 7 3.21428571 7 6 C7.99 6.33 8.98 6.66 10 7 C10 8.65 10 10.3 10 12 C6.0747975 8.29909479 3.05419844 4.45040344 0 0 Z " fill="#D7E9F3" transform="translate(430,148)"/>
<path d="M0 0 C2.475 0.495 2.475 0.495 5 1 C5 1.66 5 2.32 5 3 C5.99 3.33 6.98 3.66 8 4 C8.66 3.34 9.32 2.68 10 2 C10.99 3.65 11.98 5.3 13 7 C10 8 10 8 8.02734375 7.109375 C7.33769531 6.66078125 6.64804688 6.2121875 5.9375 5.75 C5.24527344 5.31171875 4.55304688 4.8734375 3.83984375 4.421875 C2 3 2 3 0 0 Z " fill="#302F61" transform="translate(196,462)"/>
<path d="M0 0 C0.33 0.66 0.66 1.32 1 2 C0.67 2.66 0.34 3.32 0 4 C-0.66 4 -1.32 4 -2 4 C-2.433125 5.2065625 -2.433125 5.2065625 -2.875 6.4375 C-4 9 -4 9 -6 10 C-7.13350534 12.01669827 -7.13350534 12.01669827 -8 14 C-9.65 14 -11.3 14 -13 14 C-12.67 13.34 -12.34 12.68 -12 12 C-11.01 12 -10.02 12 -9 12 C-8.67 10.68 -8.34 9.36 -8 8 C-6.68 7.67 -5.36 7.34 -4 7 C-3.67 5.68 -3.34 4.36 -3 3 C-2.34 3 -1.68 3 -1 3 C-0.67 2.01 -0.34 1.02 0 0 Z " fill="#C8D9E5" transform="translate(399,419)"/>
<path d="M0 0 C0.33 0.99 0.66 1.98 1 3 C0.34 3.66 -0.32 4.32 -1 5 C-1.99 5 -2.98 5 -4 5 C-4.04125 5.556875 -4.0825 6.11375 -4.125 6.6875 C-5.46930374 10.24030274 -8.00974189 11.70958953 -11 14 C-11.66 13.67 -12.32 13.34 -13 13 C-11.625 11.5 -11.625 11.5 -10 10 C-9.34 10 -8.68 10 -8 10 C-7.67 8.68 -7.34 7.36 -7 6 C-6.34 6 -5.68 6 -5 6 C-5 5.34 -5 4.68 -5 4 C-4.0409375 3.8453125 -4.0409375 3.8453125 -3.0625 3.6875 C-2.381875 3.460625 -1.70125 3.23375 -1 3 C-0.67 2.01 -0.34 1.02 0 0 Z " fill="#DADADA" transform="translate(241,195)"/>
<path d="M0 0 C1.98 0 3.96 0 6 0 C6 0.33 6 0.66 6 1 C9.3 1.99 12.6 2.98 16 4 C16 4.33 16 4.66 16 5 C9.80112515 5.37952295 5.5522888 4.8352113 0 2 C0 1.34 0 0.68 0 0 Z " fill="#393969" transform="translate(217,474)"/>
<path d="M0 0 C1.98019743 0.47488898 3.95913635 0.95502859 5.9375 1.4375 C7.03964844 1.70433594 8.14179688 1.97117187 9.27734375 2.24609375 C12 3 12 3 13 4 C14.51165654 4.39148761 16.03469632 4.73972457 17.5625 5.0625 C18.38878906 5.23910156 19.21507812 5.41570312 20.06640625 5.59765625 C20.70449219 5.73042969 21.34257812 5.86320312 22 6 C17.70272603 7.30660357 14.39784135 6.6596762 10 6 C10 5.34 10 4.68 10 4 C8.02 4 6.04 4 4 4 C4 3.34 4 2.68 4 2 C2.68 1.67 1.36 1.34 0 1 C0 0.67 0 0.34 0 0 Z " fill="#ACADC4" transform="translate(218,476)"/>
<path d="M0 0 C0.33 0.99 0.66 1.98 1 3 C-2.49359465 6.59634744 -6.11098131 9.83451967 -10 13 C-9.67140682 9.93313028 -9.10394436 9.08708852 -6.6875 7.0625 C-5.800625 6.381875 -4.91375 5.70125 -4 5 C-2.62631655 3.36643049 -1.28062485 1.7074998 0 0 Z M-12 13 C-11.01 13.495 -11.01 13.495 -10 14 C-10.99 14.495 -10.99 14.495 -12 15 C-12 14.34 -12 13.68 -12 13 Z " fill="#325896" transform="translate(393,387)"/>
<path d="M0 0 C2 1 2 1 2.6875 3 C3.11389971 7.09343723 2.57491832 10.94019216 2 15 C2.66 15.33 3.32 15.66 4 16 C3.01 16 2.02 16 1 16 C-0.50156874 12.99686252 -0.09281204 10.20932478 -0.0625 6.875 C-0.05347656 5.59367187 -0.04445313 4.31234375 -0.03515625 2.9921875 C-0.02355469 2.00476563 -0.01195312 1.01734375 0 0 Z " fill="#222222" transform="translate(288,340)"/>
<path d="M0 0 C0.66 0 1.32 0 2 0 C1.67 1.32 1.34 2.64 1 4 C0.34 4 -0.32 4 -1 4 C-1.33 5.65 -1.66 7.3 -2 9 C-2.99 9.33 -3.98 9.66 -5 10 C-6.70586575 11.62652316 -8.3777546 13.29006566 -10 15 C-8.34643078 11.41726669 -6.32019297 8.19026533 -4 5 C-3.34 5 -2.68 5 -2 5 C-1.34 3.35 -0.68 1.7 0 0 Z " fill="#A4A4A4" transform="translate(384,246)"/>
<path d="M0 0 C4.95 0 9.9 0 15 0 C15.66 1.32 16.32 2.64 17 4 C11.147205 3.48517081 5.6702363 2.54642808 0 1 C0 0.67 0 0.34 0 0 Z " fill="#919192" transform="translate(342,157)"/>
<path d="M0 0 C-1.65 0.66 -3.3 1.32 -5 2 C-5 2.99 -5 3.98 -5 5 C-9.455 5.495 -9.455 5.495 -14 6 C-13.195625 5.38125 -12.39125 4.7625 -11.5625 4.125 C-8.96125481 2.25835959 -8.96125481 2.25835959 -8 0 C-5.00463263 -1.13617383 -3.02121511 -0.97110486 0 0 Z " fill="#AAADC0" transform="translate(283,124)"/>
<path d="M0 0 C2.05078125 0.03255208 4.1015625 0.06510417 6.15234375 0.09765625 C6.15234375 0.75765625 6.15234375 1.41765625 6.15234375 2.09765625 C2.28510744 3.36347844 -1.57916887 3.20953275 -5.59765625 3.16015625 C-6.29503906 3.15564453 -6.99242187 3.15113281 -7.7109375 3.14648438 C-9.42321428 3.13475645 -11.13544658 3.11682278 -12.84765625 3.09765625 C-12.84765625 2.76765625 -12.84765625 2.43765625 -12.84765625 2.09765625 C-12.13738281 2.03707031 -11.42710937 1.97648437 -10.6953125 1.9140625 C-9.31666016 1.78837891 -9.31666016 1.78837891 -7.91015625 1.66015625 C-6.99363281 1.57894531 -6.07710938 1.49773437 -5.1328125 1.4140625 C-2.71666136 1.0795185 -2.31628356 0.12242514 0 0 Z " fill="#29396E" transform="translate(291.84765625,478.90234375)"/>
<path d="M0 0 C5.36513131 0.847126 10.6787385 1.91681831 16 3 C16 3.33 16 3.66 16 4 C10.26157749 4.20413361 5.39460953 4.27141454 0 2 C0 1.34 0 0.68 0 0 Z " fill="#BFBFBE" transform="translate(213,443)"/>
<path d="M0 0 C0.33 0.66 0.66 1.32 1 2 C0.00390625 4.1640625 0.00390625 4.1640625 -1.4375 6.625 C-1.91058594 7.44226563 -2.38367188 8.25953125 -2.87109375 9.1015625 C-3.24363281 9.72804688 -3.61617188 10.35453125 -4 11 C-4.99 11 -5.98 11 -7 11 C-7 11.66 -7 12.32 -7 13 C-7.99 13.33 -8.98 13.66 -10 14 C-10 13.34 -10 12.68 -10 12 C-9.34 12 -8.68 12 -8 12 C-7.60167969 11.14148438 -7.60167969 11.14148438 -7.1953125 10.265625 C-5.94323109 7.8923988 -4.5063648 5.87786714 -2.875 3.75 C-2.06675781 2.69039063 -2.06675781 2.69039063 -1.2421875 1.609375 C-0.83226562 1.07828125 -0.42234375 0.5471875 0 0 Z " fill="#BDD2E3" transform="translate(415,400)"/>
<path d="M0 0 C3.96 0 7.92 0 12 0 C12 0.66 12 1.32 12 2 C12.66 2.33 13.32 2.66 14 3 C7.07 2.505 7.07 2.505 0 2 C0 1.34 0 0.68 0 0 Z " fill="#393E6E" transform="translate(240,481)"/>
<path d="M0 0 C0.74958984 0.06123047 1.49917969 0.12246094 2.27148438 0.18554688 C4.11972745 0.33858611 5.9663335 0.51116879 7.8125 0.6875 C7.8125 1.0175 7.8125 1.3475 7.8125 1.6875 C1.47008005 2.84066726 -4.75438704 2.78257063 -11.1875 2.6875 C-8.44496335 -1.52928559 -4.41689889 -0.43590356 0 0 Z " fill="#D6EDF8" transform="translate(258.1875,455.3125)"/>
<path d="M0 0 C-0.33 1.32 -0.66 2.64 -1 4 C-1.66 4 -2.32 4 -3 4 C-3.433125 4.804375 -3.86625 5.60875 -4.3125 6.4375 C-6 9 -6 9 -8.6875 9.8125 C-9.450625 9.874375 -10.21375 9.93625 -11 10 C-10.34 9.01 -9.68 8.02 -9 7 C-8.34 7 -7.68 7 -7 7 C-6.731875 6.401875 -6.46375 5.80375 -6.1875 5.1875 C-3.37142857 0 -3.37142857 0 0 0 Z " fill="#3A4274" transform="translate(373,388)"/>
<path d="M0 0 C1.9296875 0.3125 1.9296875 0.3125 4 1 C5.125 4 5.125 4 6 7 C6.66 7.33 7.32 7.66 8 8 C7.67 9.98 7.34 11.96 7 14 C4.60926851 11.06810006 3.15892693 8.27856712 1.8125 4.75 C1.46832031 3.85796875 1.12414062 2.9659375 0.76953125 2.046875 C0.51558594 1.37140625 0.26164062 0.6959375 0 0 Z " fill="#C2D9EA" transform="translate(447,172)"/>
<path d="M0 0 C1.16144531 0.00902344 2.32289063 0.01804687 3.51953125 0.02734375 C4.39996094 0.03894531 5.28039062 0.05054687 6.1875 0.0625 C2.65433636 2.01685299 0.22335224 2.15218561 -3.8125 2.0625 C-4.1425 2.3925 -4.4725 2.7225 -4.8125 3.0625 C-7.48308851 3.20365161 -10.13682238 3.10497107 -12.8125 3.0625 C-12.4825 2.4025 -12.1525 1.7425 -11.8125 1.0625 C-7.88476248 -0.07920067 -4.06671021 -0.04107788 0 0 Z " fill="#232A5D" transform="translate(322.8125,113.9375)"/>
<path d="M0 0 C0.33 0.66 0.66 1.32 1 2 C0.67 2.66 0.34 3.32 0 4 C-0.66 4 -1.32 4 -2 4 C-2 4.66 -2 5.32 -2 6 C-4.97 6.66 -7.94 7.32 -11 8 C-8.56621237 5.56621237 -6.68941052 4.0575113 -3.8125 2.3125 C-3.09707031 1.87550781 -2.38164062 1.43851562 -1.64453125 0.98828125 C-1.10183594 0.66214844 -0.55914062 0.33601563 0 0 Z " fill="#B5C5D9" transform="translate(361,452)"/>
<path d="M0 0 C0.66 0 1.32 0 2 0 C2.26554688 0.68707031 2.53109375 1.37414062 2.8046875 2.08203125 C3.15789062 2.98308594 3.51109375 3.88414062 3.875 4.8125 C4.39707031 6.15248047 4.39707031 6.15248047 4.9296875 7.51953125 C5.98832155 10.17711591 5.98832155 10.17711591 8 13 C7.67 13.99 7.34 14.98 7 16 C7 15.34 7 14.68 7 14 C6.34 14 5.68 14 5 14 C5 13.01 5 12.02 5 11 C4.34 11 3.68 11 3 11 C2.49632243 9.54293274 1.99717444 8.08429904 1.5 6.625 C1.2215625 5.81289063 0.943125 5.00078125 0.65625 4.1640625 C0 2 0 2 0 0 Z " fill="#C4C4C4" transform="translate(144,370)"/>
<path d="M0 0 C0.66 0.33 1.32 0.66 2 1 C0.75596862 4.73209414 -1.17243898 6.30708475 -4 9 C-4.8971875 9.8971875 -4.8971875 9.8971875 -5.8125 10.8125 C-6.204375 11.204375 -6.59625 11.59625 -7 12 C-5.08277831 4.18363463 -5.08277831 4.18363463 -2 2 C-1.34 2 -0.68 2 0 2 C0 1.34 0 0.68 0 0 Z " fill="#979797" transform="translate(181,210)"/>
<path d="M0 0 C0.66 0.33 1.32 0.66 2 1 C-0.33333333 5.66666667 -2.66666667 10.33333333 -5 15 C-5.66 15 -6.32 15 -7 15 C-5.95902388 11.13351728 -4.96301592 7.50538557 -3 4 C-2.34 4 -1.68 4 -1 4 C-0.67 2.68 -0.34 1.36 0 0 Z " fill="#1E3372" transform="translate(398,373)"/>
<path d="M0 0 C0.98484375 0.00902344 1.9696875 0.01804687 2.984375 0.02734375 C4.10585937 0.04474609 4.10585937 0.04474609 5.25 0.0625 C1.45916783 3.21321358 -0.79181289 3.50519528 -5.75 3.0625 C-8.1875 2.0625 -8.1875 2.0625 -9.75 1.0625 C-6.43929162 0.06140485 -3.44915231 -0.04106134 0 0 Z " fill="#31609C" transform="translate(231.75,460.9375)"/>
<path d="M0 0 C0.99 0.66 1.98 1.32 3 2 C1.02 4.31 -0.96 6.62 -3 9 C-3.66 7.68 -4.32 6.36 -5 5 C-3.35 3.35 -1.7 1.7 0 0 Z " fill="#436FA1" transform="translate(414,397)"/>
<path d="M0 0 C0.66 0.66 1.32 1.32 2 2 C1.51789063 2.54269531 1.03578125 3.08539063 0.5390625 3.64453125 C-0.09257812 4.35996094 -0.72421875 5.07539063 -1.375 5.8125 C-2.31472656 6.87404297 -2.31472656 6.87404297 -3.2734375 7.95703125 C-5.140599 10.08803819 -5.140599 10.08803819 -7 13 C-6.36664937 7.61651963 -3.79089107 3.79089107 0 0 Z " fill="#393B6F" transform="translate(382,373)"/>
<path d="M0 0 C5.94 0 11.88 0 18 0 C17.67 0.99 17.34 1.98 17 3 C11.32644329 2.38273804 5.66138945 1.72054048 0 1 C0 0.67 0 0.34 0 0 Z " fill="#4473A4" transform="translate(416,371)"/>
<path d="M0 0 C0 0.99 0 1.98 0 3 C-0.61875 3.2475 -1.2375 3.495 -1.875 3.75 C-4.38710296 5.22770762 -4.76107344 6.43955177 -6 9 C-6.99 9.33 -7.98 9.66 -9 10 C-9 10.66 -9 11.32 -9 12 C-9.66 11.67 -10.32 11.34 -11 11 C-9.92173635 9.72486237 -8.83714481 8.45507431 -7.75 7.1875 C-7.14671875 6.47980469 -6.5434375 5.77210938 -5.921875 5.04296875 C-4.07629602 3.08110329 -2.20054668 1.54330375 0 0 Z " fill="#939393" transform="translate(211,176)"/>
<path d="M0 0 C2.65262179 1.32631089 3.21099749 2.85343108 4.625 5.4375 C5.07101562 6.24058594 5.51703125 7.04367188 5.9765625 7.87109375 C7 10 7 10 7 12 C6.01 12 5.02 12 4 12 C2.18757677 7.9811485 0.66498383 4.38889325 0 0 Z " fill="#5D88B7" transform="translate(443,166)"/>
<path d="M0 0 C0.66 0 1.32 0 2 0 C2 4.95 2 9.9 2 15 C1.01 15.33 0.02 15.66 -1 16 C-0.67 10.72 -0.34 5.44 0 0 Z " fill="#BEBEBE" transform="translate(284,253)"/>
<path d="M0 0 C0.66 0.33 1.32 0.66 2 1 C-0.625 5.875 -0.625 5.875 -4 7 C-4.33 8.65 -4.66 10.3 -5 12 C-5.66 12 -6.32 12 -7 12 C-5.80805531 6.47371099 -4.4008703 3.82180842 0 0 Z " fill="#6390B8" transform="translate(224,239)"/>
<path d="M0 0 C-2.12121657 2.33333823 -4.01594365 3.9148886 -7 5 C-9.25 4.625 -9.25 4.625 -11 4 C-10.01 3.67 -9.02 3.34 -8 3 C-8.99 2.34 -9.98 1.68 -11 1 C-7.26562152 0.12132271 -3.83225427 -0.08912219 0 0 Z " fill="#626262" transform="translate(297,435)"/>
<path d="M0 0 C2.97 0.495 2.97 0.495 6 1 C6 1.66 6 2.32 6 3 C7.65 2.67 9.3 2.34 11 2 C11.33 3.65 11.66 5.3 12 7 C7.69235185 5.43358249 3.93828536 3.31663844 0 1 C0 0.67 0 0.34 0 0 Z " fill="#888787" transform="translate(188,431)"/>
<path d="M0 0 C4.13347071 0.47239665 7.35761877 2.05174957 11 4 C7.85000502 5.57499749 5.36459118 4.70833498 2 4 C0.0625 2.4375 0.0625 2.4375 -1 1 C-0.67 0.67 -0.34 0.34 0 0 Z " fill="#6C6C6D" transform="translate(357,157)"/>
<path d="M0 0 C0.66 0.33 1.32 0.66 2 1 C-1.15557744 5.67025461 -3.8641579 7.12344231 -9 9 C-9 8.34 -9 7.68 -9 7 C-7.5390625 5.7109375 -7.5390625 5.7109375 -5.625 4.375 C-4.99851563 3.92898437 -4.37203125 3.48296875 -3.7265625 3.0234375 C-2 2 -2 2 0 2 C0 1.34 0 0.68 0 0 Z " fill="#A3A3A3" transform="translate(222,166)"/>
<path d="M0 0 C2.29648649 2.5614657 3 3.47967572 3 7 C-0.36720387 5.60667426 -1.9859524 4.0210714 -4 1 C-2 0 -2 0 0 0 Z " fill="#747472" transform="translate(388,172)"/>
<path d="M0 0 C3.3 0 6.6 0 10 0 C10 0.99 10 1.98 10 3 C2.25 2.25 2.25 2.25 0 0 Z " fill="#494949" transform="translate(312,136)"/>
<path d="M0 0 C5.41538462 -0.36923077 5.41538462 -0.36923077 8.375 1.5 C8.91125 1.995 9.4475 2.49 10 3 C7.69 3.33 5.38 3.66 3 4 C2.01 2.68 1.02 1.36 0 0 Z " fill="#333F72" transform="translate(354,112)"/>
<path d="M0 0 C-1.57914015 0.53341184 -3.16354387 1.05125763 -4.75 1.5625 C-5.63171875 1.85253906 -6.5134375 2.14257812 -7.421875 2.44140625 C-10.07834316 3.01697435 -11.47031106 2.89248371 -14 2 C-10.30825918 -1.69174082 -4.75809711 -1.41889443 0 0 Z " fill="#C5C9D8" transform="translate(322,112)"/>
<path d="M0 0 C-0.33 0.99 -0.66 1.98 -1 3 C-4.5625 4.1875 -4.5625 4.1875 -8 5 C-8 4.01 -8 3.02 -8 2 C-4.91190305 0.23537317 -3.76687864 0 0 0 Z " fill="#374A77" transform="translate(320,472)"/>
<path d="M0 0 C9.59453303 2.70615034 9.59453303 2.70615034 13 7 C10.03 6.505 10.03 6.505 7 6 C7 5.34 7 4.68 7 4 C6.030625 3.71125 5.06125 3.4225 4.0625 3.125 C1 2 1 2 0 0 Z " fill="#9392B1" transform="translate(204,469)"/>
<path d="M0 0 C1.65 0 3.3 0 5 0 C2.65408148 2.7710688 0.85223799 3.52059284 -2.6875 4.1875 C-3.49574219 4.34605469 -4.30398438 4.50460937 -5.13671875 4.66796875 C-6.05904297 4.83232422 -6.05904297 4.83232422 -7 5 C-7 4.34 -7 3.68 -7 3 C-3.535 2.505 -3.535 2.505 0 2 C0 1.34 0 0.68 0 0 Z " fill="#B7D1E4" transform="translate(291,446)"/>
<path d="M0 0 C0.99 0.33 1.98 0.66 3 1 C-1.625 5.875 -1.625 5.875 -5 7 C-3.75023244 3.34683329 -3.32901247 2.21934164 0 0 Z " fill="#3F6999" transform="translate(398,417)"/>
<path d="M0 0 C2.97 0.33 5.94 0.66 9 1 C9 1.99 9 2.98 9 4 C6.36 3.67 3.72 3.34 1 3 C0.67 2.01 0.34 1.02 0 0 Z " fill="#424344" transform="translate(329,138)"/>
<path d="M0 0 C0.66 0.33 1.32 0.66 2 1 C0.68 2.65 -0.64 4.3 -2 6 C-3.32 5.34 -4.64 4.68 -6 4 C-3.94766315 1.7522025 -2.99332739 0.9977758 0 0 Z " fill="#465C87" transform="translate(352,409)"/>
<path d="M0 0 C0.99 0.33 1.98 0.66 3 1 C2.0479279 2.00596297 1.08812654 3.00461563 0.125 4 C-0.40867187 4.556875 -0.94234375 5.11375 -1.4921875 5.6875 C-3 7 -3 7 -5 7 C-5.33 7.66 -5.66 8.32 -6 9 C-6 8.01 -6 7.02 -6 6 C-5.34 6 -4.68 6 -4 6 C-3.67 5.01 -3.34 4.02 -3 3 C-2.34 3 -1.68 3 -1 3 C-0.67 2.01 -0.34 1.02 0 0 Z " fill="#DDE9F0" transform="translate(348,408)"/>
<path d="M0 0 C2 3 2 3 1.625 5.1875 C1.41875 5.785625 1.2125 6.38375 1 7 C0.34 7 -0.32 7 -1 7 C-1.33 7.99 -1.66 8.98 -2 10 C-3.33332095 7.3333581 -2.67102033 5.83319697 -2 3 C-1.34 3 -0.68 3 0 3 C0 2.01 0 1.02 0 0 Z " fill="#6E92B9" transform="translate(424,383)"/>
<path d="M0 0 C0.33 1.32 0.66 2.64 1 4 C-4.75 7.875 -4.75 7.875 -7 9 C-5.44499019 5.18315774 -2.96404505 2.80804268 0 0 Z " fill="#666C98" transform="translate(374,383)"/>
<path d="M0 0 C1.32 0.33 2.64 0.66 4 1 C4 1.66 4 2.32 4 3 C4.78375 3.103125 5.5675 3.20625 6.375 3.3125 C9 4 9 4 11 7 C9.35 6.67 7.7 6.34 6 6 C6 5.34 6 4.68 6 4 C5.01 4 4.02 4 3 4 C3 3.34 3 2.68 3 2 C2.01 2 1.02 2 0 2 C0 1.34 0 0.68 0 0 Z " fill="#A8BDD5" transform="translate(355,134)"/>
<path d="M0 0 C0.66 0 1.32 0 2 0 C1 2 0 4 -1 6 C-1.66 6 -2.32 6 -3 6 C-3.33 6.99 -3.66 7.98 -4 9 C-4.33 7.68 -4.66 6.36 -5 5 C-4.01 5 -3.02 5 -2 5 C-1.7834375 4.0409375 -1.7834375 4.0409375 -1.5625 3.0625 C-1 1 -1 1 0 0 Z " fill="#4B719E" transform="translate(408,406)"/>
<path d="M0 0 C0.33 0.99 0.66 1.98 1 3 C-0.9375 6.1875 -0.9375 6.1875 -3 9 C-3.66 8.34 -4.32 7.68 -5 7 C-3.35 4.69 -1.7 2.38 0 0 Z " fill="#3C6BA1" transform="translate(421,388)"/>
<path d="M0 0 C2.58047436 1.29023718 2.67022964 2.27089391 3.625 4.9375 C3.88539063 5.64777344 4.14578125 6.35804688 4.4140625 7.08984375 C5 9 5 9 5 11 C4.34 11 3.68 11 3 11 C2.49632243 9.54293274 1.99717444 8.08429904 1.5 6.625 C1.2215625 5.81289062 0.943125 5.00078125 0.65625 4.1640625 C0 2 0 2 0 0 Z " fill="#B1BCD3" transform="translate(405,185)"/>
<path d="M0 0 C6.875 2.75 6.875 2.75 8 5 C5.69 4.67 3.38 4.34 1 4 C0.67 2.68 0.34 1.36 0 0 Z " fill="#425B8B" transform="translate(393,122)"/>
<path d="M0 0 C-2.90092502 1.93395001 -3.89674737 2.30131941 -7.1875 2.625 C-8.445625 2.74875 -9.70375 2.8725 -11 3 C-8.21756596 -1.17365106 -4.53441502 -0.22300402 0 0 Z " fill="#C9E1EE" transform="translate(277,453)"/>
<path d="M0 0 C1 3 1 3 0 6 C-0.66 6 -1.32 6 -2 6 C-2 7.32 -2 8.64 -2 10 C-2.66 10 -3.32 10 -4 10 C-2.99806563 6.20696275 -2.18975773 3.28463659 0 0 Z " fill="#9F9F9F" transform="translate(292,247)"/>
<path d="M0 0 C2 1.3125 2 1.3125 4 3 C4 3.99 4 4.98 4 6 C2.68 6 1.36 6 0 6 C-1.125 2.25 -1.125 2.25 0 0 Z " fill="#C9C9C8" transform="translate(391,177)"/>
<path d="M0 0 C0.33 0.66 0.66 1.32 1 2 C-0.70625501 4.78388975 -1.47626739 5.85384206 -4.6875 6.75 C-5.8321875 6.87375 -5.8321875 6.87375 -7 7 C-6.67 6.34 -6.34 5.68 -6 5 C-5.34 5 -4.68 5 -4 5 C-4 4.34 -4 3.68 -4 3 C-2 1.375 -2 1.375 0 0 Z " fill="#B7CBDF" transform="translate(385,433)"/>
<path d="M0 0 C-3.4352048 2.29013653 -4.985331 2.17842973 -9 2 C-9 1.34 -9 0.68 -9 0 C-5.52176885 -1.15941038 -3.54104422 -0.70820884 0 0 Z " fill="#6E6E6E" transform="translate(256,436)"/>
<path d="M0 0 C-0.33 1.32 -0.66 2.64 -1 4 C-3.64 3.67 -6.28 3.34 -9 3 C-8.67 2.34 -8.34 1.68 -8 1 C-5.2303041 0.27113266 -2.87137415 0 0 0 Z " fill="#C9C9C8" transform="translate(305,431)"/>
<path d="M0 0 C2.875 0.3125 2.875 0.3125 6 1 C6.66 1.99 7.32 2.98 8 4 C7.01 4.33 6.02 4.66 5 5 C3.35 3.35 1.7 1.7 0 0 Z " fill="#476894" transform="translate(372,144)"/>
<path d="M0 0 C2.475 0.495 2.475 0.495 5 1 C5 1.66 5 2.32 5 3 C5.639375 3.12375 6.27875 3.2475 6.9375 3.375 C7.618125 3.58125 8.29875 3.7875 9 4 C9.33 4.66 9.66 5.32 10 6 C5.56909529 4.79157144 3.01887244 3.48331435 0 0 Z " fill="#B6C3D8" transform="translate(397,123)"/>
<path d="M0 0 C1.4800841 0.11362262 2.95910074 0.24122908 4.4375 0.375 C5.26121094 0.44460937 6.08492188 0.51421875 6.93359375 0.5859375 C7.95646484 0.79089844 7.95646484 0.79089844 9 1 C9.33 1.66 9.66 2.32 10 3 C8.72125 3.061875 7.4425 3.12375 6.125 3.1875 C5.40570313 3.22230469 4.68640625 3.25710937 3.9453125 3.29296875 C3.30335938 3.19628906 2.66140625 3.09960938 2 3 C1.34 2.01 0.68 1.02 0 0 Z " fill="#2F4172" transform="translate(365,114)"/>
<path d="M0 0 C0 0.33 0 0.66 0 1 C-3.82320557 2.42258812 -6.91281305 3.24042276 -11 3 C-8.89427904 -1.21144191 -4.11694326 -0.07767817 0 0 Z " fill="#3A6DA3" transform="translate(277,456)"/>
<path d="M0 0 C-0.33 1.32 -0.66 2.64 -1 4 C-2.32 4.33 -3.64 4.66 -5 5 C-5.33 4.01 -5.66 3.02 -6 2 C-3 0 -3 0 0 0 Z " fill="#4A6497" transform="translate(372,443)"/>
<path d="M0 0 C0.99 0 1.98 0 3 0 C3 0.99 3 1.98 3 3 C4.32 3.66 5.64 4.32 7 5 C6.67 5.66 6.34 6.32 6 7 C3.95880212 5.38405168 1.95927063 3.7143618 0 2 C0 1.34 0 0.68 0 0 Z " fill="#979797" transform="translate(167,412)"/>
<path d="M0 0 C3.3 0 6.6 0 10 0 C10 0.33 10 0.66 10 1 C8.88625 1.103125 7.7725 1.20625 6.625 1.3125 C5.42875 1.539375 4.2325 1.76625 3 2 C2.01 3.485 2.01 3.485 1 5 C0.67 3.35 0.34 1.7 0 0 Z " fill="#393939" transform="translate(172,371)"/>
<path d="M0 0 C0.66 0 1.32 0 2 0 C1.6875 2.875 1.6875 2.875 1 6 C0.01 6.66 -0.98 7.32 -2 8 C-1.125 1.125 -1.125 1.125 0 0 Z " fill="#C7E6F1" transform="translate(216,246)"/>
<path d="M0 0 C0.99 0 1.98 0 3 0 C3.33 2.97 3.66 5.94 4 9 C3.34 9 2.68 9 2 9 C2 7.35 2 5.7 2 4 C1.34 4 0.68 4 0 4 C0 2.68 0 1.36 0 0 Z " fill="#283B6E" transform="translate(411,193)"/>
<path d="M0 0 C1.65 1.65 3.3 3.3 5 5 C4.01 5.33 3.02 5.66 2 6 C1.34 5.67 0.68 5.34 0 5 C0 3.35 0 1.7 0 0 Z " fill="#5176A6" transform="translate(429,148)"/>
<path d="M0 0 C2.97 0.99 5.94 1.98 9 3 C9 3.33 9 3.66 9 4 C7.02 4.33 5.04 4.66 3 5 C3 4.01 3 3.02 3 2 C2.01 2 1.02 2 0 2 C0 1.34 0 0.68 0 0 Z " fill="#D3E3F1" transform="translate(346,131)"/>
</svg>
